<svg xmlns="http://www.w3.org/2000/svg" viewBox="0 0 254.1 254.1"><defs><style>.cls-1{fill:#f3997b;}</style></defs><title>icoon-pi</title><g id="Laag_2" data-name="Laag 2"><g id="Laag_1-2" data-name="Laag 1"><path class="cls-1" d="M127,0a127,127,0,1,0,127,127A127,127,0,0,0,127,0ZM76.67,105H40.94v17.87H73.76v13.71H40.94v27.53H24.53V91.4H76.77Zm44.25,45.49c4.36,0,9.56-1.56,14.23-3.95V127.44h14.23v27.94c-7.69,5.61-19.42,9.45-29.5,9.45-22,0-38.74-16-38.74-37.08s17-36.87,39.68-36.87c10.8,0,21.81,4.15,29.19,10.59l-9.24,11.74a30.43,30.43,0,0,0-19.94-8.1,22.7,22.7,0,1,0,.1,45.39Zm93.69,13.61L179.4,117.47v46.64H163.71V91.4h15L214,138.14V91.4h15.58v72.71Z"/></g></g></svg>