<svg xmlns="http://www.w3.org/2000/svg" viewBox="0 0 1144.44 347.33"><defs><style>.cls-1{fill:#f3997b;}.cls-2{fill:#d8d8d8;}</style></defs><title>logo fgn</title><g id="Laag_2" data-name="Laag 2"><g id="Laag_1-2" data-name="Laag 1"><path class="cls-1" d="M411.06,236.53c-13.26,0-24.31,10.46-24.31,23.63S397.8,284,411.06,284a23.72,23.72,0,1,0,0-47.43Z"/><path class="cls-1" d="M343.4,236.53c-13.26,0-24.31,10.46-24.31,23.63S330.14,284,343.4,284a23.72,23.72,0,1,0,0-47.43Z"/><path class="cls-1" d="M0,0V347.33H540V0ZM83,241.55H53.73v14.62H80.59v11.22H53.73v22.53H40.3v-59.5H83.05Zm54.14,48.37H90.87v-59.5h45.31v11.14H104.3v12.92h28.65v11.14H104.3v13.18h32.81Zm56.78,0H147.65v-59.5H193v11.14H161.08v12.92h28.65v11.14H161.08v13.18h32.81Zm49.47,0H204.43v-59.5h13.43v47.77h25.5Zm36.29-6a28.46,28.46,0,0,0,15.64-5V260.85h6v21.59a36.69,36.69,0,0,1-22.1,7.74c-17.26,0-31-13.26-31-30s13.86-29.92,31.37-29.92a33.69,33.69,0,0,1,21.93,8.16l-3.91,4.93a27.35,27.35,0,0,0-18-6.89c-13.6,0-24.48,10.54-24.48,23.72S266.05,284,279.66,284Zm63.75,6.21c-17.43,0-31.2-13.26-31.2-30s13.77-29.92,31.2-29.92,31.11,13.18,31.11,29.92S360.75,290.17,343.4,290.17Zm67.66,0c-17.43,0-31.2-13.26-31.2-30s13.77-29.92,31.2-29.92,31.11,13.18,31.11,29.92S428.41,290.17,411.06,290.17Zm67.32-.25h-23.8v-59.5h24.06c17.34,0,30.6,12.84,30.6,29.75S495.89,289.92,478.38,289.92Z"/><path class="cls-1" d="M478.47,236.7H461.38v46.92h17.34c13.26,0,23.63-10,23.63-23.38S491.81,236.7,478.47,236.7Z"/><path class="cls-2" d="M841.93,241.55H829.51V261.7h12.41c7.4,0,11.65-3.4,11.65-10.2C853.57,244.86,849.32,241.55,841.93,241.55Z"/><path class="cls-2" d="M718.93,241.72H707.37v36.89h12.16c9.95,0,17.26-7.48,17.26-18.36S729.13,241.72,718.93,241.72Z"/><polygon class="cls-2" points="941.03 267.56 959.82 267.56 950.47 244.44 941.03 267.56"/><path class="cls-2" d="M540,0V347.33h604.47V0Zm84.1,289.92H611.83L583,251.75v38.17H570.18v-59.5h12.24l28.9,38.25V230.41h12.75Zm59.33,0H637.16v-59.5h45.31v11.14H650.59v12.92h28.65v11.14H650.59v13.18H683.4Zm35.27,0H693.94v-59.5h25.25c18.45,0,31.28,12.16,31.28,29.75S737.46,289.92,718.67,289.92Zm86.87,0H759.3v-59.5h45.31v11.14H772.73v12.92h28.65v11.14H772.73v13.18h32.81Zm47.09,0-9.44-17H829.51v17H816.08v-59.5h25.84c15.56,0,24.4,7.48,24.4,20.66,0,9.18-3.91,15.81-11.14,19.21l12.67,19.64Zm63.92,0H877.62v-59.5h13.43v47.77h25.5Zm52.27,0-4.68-11.56H936.61l-4.68,11.56H918.08l25.84-59.5h13.86l25.42,59.5Zm74.46,0H1031l-28.82-38.17v38.17H989.4v-59.5h12.24l28.9,38.25V230.41h12.75Zm37.82,0h-24.74v-59.5h25.25c18.45,0,31.28,12.16,31.28,29.75S1099.9,289.92,1081.11,289.92Z"/><path class="cls-2" d="M1081.37,241.72h-11.56v36.89H1082c9.95,0,17.26-7.48,17.26-18.36S1091.57,241.72,1081.37,241.72Z"/></g></g></svg>