<?xml version="1.0" encoding="iso-8859-1"?>
<!-- Generator: Adobe Illustrator 18.0.0, SVG Export Plug-In . SVG Version: 6.00 Build 0)  -->
<!DOCTYPE svg PUBLIC "-//W3C//DTD SVG 1.1//EN" "http://www.w3.org/Graphics/SVG/1.1/DTD/svg11.dtd">
<svg version="1.1" id="Capa_1" xmlns="http://www.w3.org/2000/svg" xmlns:xlink="http://www.w3.org/1999/xlink" x="0px" y="0px"
	 viewBox="0 0 330.005 330.005" style="enable-background:new 0 0 330.005 330.005;" xml:space="preserve">
<g>
	<path d="M175.002,90.129h-20c-8.284,0-15,6.716-15,15v20c0,8.284,6.716,15,15,15h20c8.284,0,15-6.716,15-15v-20
		C190.002,96.844,183.287,90.129,175.002,90.129z"/>
	<path d="M327.959,167.57l-70-120c-1.47-2.519-3.641-4.554-6.249-5.858L171.713,1.713c-4.222-2.111-9.193-2.112-13.416,0
		L78.294,41.714c-2.608,1.304-4.779,3.34-6.248,5.858l-70,119.998c-4.174,7.156-1.757,16.34,5.398,20.515
		c7.157,4.174,16.34,1.756,20.515-5.398l2.044-3.503v135.692c0,8.284,6.716,15,15,15h60h120h60c8.284,0,15-6.716,15-15V179.184
		l2.043,3.503c2.788,4.779,7.81,7.444,12.971,7.444c2.566,0,5.168-0.66,7.544-2.046C329.716,183.911,332.133,174.726,327.959,167.57
		z M143.789,254.875l-23.786,23.786v-47.571L143.789,254.875z M165.002,276.087l23.789,23.788h-47.578L165.002,276.087z
		 M186.216,254.875l23.786-23.786v47.571L186.216,254.875z M165.002,233.662l-23.787-23.786h47.574L165.002,233.662z
		 M270.002,299.876h-30v-105c0-8.284-6.716-15-15-15h-120c-8.284,0-15,6.716-15,15v105h-30v-172.12l35.705-61.208L165.005,31.9
		l69.292,34.646l35.705,61.209V299.876z"/>
</g>
<g>
</g>
<g>
</g>
<g>
</g>
<g>
</g>
<g>
</g>
<g>
</g>
<g>
</g>
<g>
</g>
<g>
</g>
<g>
</g>
<g>
</g>
<g>
</g>
<g>
</g>
<g>
</g>
<g>
</g>
</svg>
