<?xml version="1.0" encoding="iso-8859-1"?>
<!-- Generator: Adobe Illustrator 19.0.0, SVG Export Plug-In . SVG Version: 6.00 Build 0)  -->
<svg version="1.1" id="Capa_1" xmlns="http://www.w3.org/2000/svg" xmlns:xlink="http://www.w3.org/1999/xlink" x="0px" y="0px"
	 viewBox="0 0 512 512" style="enable-background:new 0 0 512 512;" xml:space="preserve">
<g>
	<g>
		<path d="M382.221,197.344l-47.721-11.93C345.154,155.972,373.122,136,405,136c24.813,0,45-20.187,45-45s-20.187-45-45-45
			c-37.5,0-72.868,12.312-102.278,35.605c-26.48,20.971-46.073,49.841-55.754,81.925l-37.36-9.34
			c-50.746-12.686-103.5-1.5-144.73,30.692C23.647,217.073,0,265.537,0,317.846v16.677c0,22.749,17.785,41.68,40.495,43.1
			L60,378.836V421c0,24.813,20.187,45,45,45h302c24.813,0,45-20.187,45-45v-17.779l14.127,0.879
			C490.989,405.653,512,385.841,512,361C512,283.813,457.413,216.141,382.221,197.344z M405,76c8.271,0,15,6.729,15,15
			s-6.729,15-15,15c-45.678,0-85.625,29.29-99.711,72.111l-29.181-7.295C293.593,114.617,345.529,76,405,76z M422,421
			c0,8.271-6.729,15-15,15H105c-8.271,0-15-6.729-15-15v-40.298l332,20.653V421z M467.995,374.158c-0.002,0-0.003,0-0.005,0
			L42.361,347.681C35.43,347.248,30,341.468,30,334.523v-16.677c0-43.007,19.441-82.852,53.34-109.319
			c33.954-26.51,77.336-35.647,118.991-25.233l21.927,5.482c-17.318,8.891-31.517,23.201-40.242,40.651l-2.432,4.864
			c-3.705,7.409-0.702,16.42,6.708,20.125c7.409,3.705,16.419,0.702,20.125-6.708l2.433-4.865
			c13.063-26.127,41.977-39.427,70.316-32.341l1.988,0.497C310.736,217.896,330,242.569,330,271c0,8.284,6.716,15,15,15
			s15-6.716,15-15c0-19.292-5.987-37.408-16.381-52.384l31.326,7.832C436.977,241.956,482,298.543,482,361
			C482,368.582,475.633,374.63,467.995,374.158z"/>
	</g>
</g>
<g>
</g>
<g>
</g>
<g>
</g>
<g>
</g>
<g>
</g>
<g>
</g>
<g>
</g>
<g>
</g>
<g>
</g>
<g>
</g>
<g>
</g>
<g>
</g>
<g>
</g>
<g>
</g>
<g>
</g>
</svg>
