<?xml version="1.0" encoding="iso-8859-1"?>
<!-- Generator: Adobe Illustrator 19.0.0, SVG Export Plug-In . SVG Version: 6.00 Build 0)  -->
<svg version="1.1" id="Capa_1" xmlns="http://www.w3.org/2000/svg" xmlns:xlink="http://www.w3.org/1999/xlink" x="0px" y="0px"
	 viewBox="0 0 512 512" style="enable-background:new 0 0 512 512;" xml:space="preserve">
<g>
	<g>
		<path d="M255,199.218c-24.813,0-45,20.187-45,45s20.187,45,45,45s45-20.187,45-45S279.813,199.218,255,199.218z M255,259.218
			c-8.271,0-15-6.729-15-15s6.729-15,15-15s15,6.729,15,15S263.271,259.218,255,259.218z"/>
	</g>
</g>
<g>
	<g>
		<path d="M512,244.218c0-40.023-33.316-75.458-83.961-99.972c1.078-14.539,0.879-28.308-0.605-41.044
			C440.907,95.418,450,80.864,450,64.218c0-24.813-20.187-45-45-45c-7.531,0-14.63,1.869-20.873,5.153
			c-0.542-0.331-1.078-0.672-1.627-0.989c-34.658-20.009-80.998-10.609-127.545,20.985c-1.019-0.694-2.038-1.388-3.059-2.062
			C204.615,11.086,160.437,4.365,127.5,23.381c-34.657,20.01-49.687,64.84-45.599,120.948c-3.083,1.486-6.093,3.019-9.041,4.59
			c-7.669-6.066-17.345-9.701-27.86-9.701c-24.813,0-45,20.187-45,45c0,9.501,2.967,18.318,8.013,25.589
			C2.696,220.936,0,232.468,0,244.218c0,40.006,31.291,75.428,81.897,99.941c-4.074,56.083,10.956,100.892,45.603,120.896
			c12.279,7.089,26.117,10.601,41.099,10.601c25.206-0.001,53.643-9.944,83.298-29.524c1.03-0.68,2.059-1.381,3.088-2.081
			c5,3.401,10.015,6.565,15.034,9.467c-0.004,0.234-0.018,0.466-0.018,0.701c0,24.813,20.187,45,45,45
			c17.486,0,32.663-10.031,40.108-24.635c9.855-1.515,19.035-4.703,27.392-9.528c34.647-20.003,49.677-64.812,45.603-120.896
			C478.709,319.646,512,284.224,512,244.218z M405,49.218c8.271,0,15,6.729,15,15s-6.729,15-15,15s-15-6.729-15-15
			S396.729,49.218,405,49.218z M255,81.752c10.414,8.408,20.668,17.924,30.638,28.398c-10.03-0.61-20.249-0.932-30.638-0.932
			c-10.32,0-20.555,0.332-30.666,0.961C234.312,99.693,244.576,90.167,255,81.752z M386.388,203.644
			c-4.477-8.967-9.295-17.954-14.475-26.926c-5.16-8.937-10.548-17.637-16.133-26.069c14.062,3.398,27.435,7.522,39.927,12.339
			C393.624,176.093,390.5,189.721,386.388,203.644z M395.699,325.451c-12.49,4.815-25.861,8.939-39.92,12.336
			c5.586-8.432,10.974-17.132,16.133-26.069c5.144-8.908,9.975-17.943,14.5-27.045C390.505,298.56,393.623,312.214,395.699,325.451z
			 M371.956,244.15c-7.307,17.558-16.01,35.224-26.023,52.568c-10.017,17.349-20.915,33.707-32.44,48.812
			c-18.844,2.429-38.459,3.688-58.493,3.688c-19.988,0-39.559-1.253-58.364-3.671c-11.635-15.177-22.608-31.575-32.57-48.829
			c-10.017-17.349-18.734-34.966-26.052-52.5c7.319-17.534,16.036-35.151,26.052-52.5c10.012-17.341,20.904-33.69,32.422-48.789
			c18.859-2.437,38.494-3.711,58.511-3.711c20.033,0,39.648,1.259,58.492,3.688c11.525,15.105,22.423,31.463,32.44,48.812
			C355.935,209.045,364.642,226.639,371.956,244.15z M123.574,284.719c4.487,8.991,9.318,18.003,14.512,26.999
			c5.165,8.946,10.562,17.642,16.148,26.072c-14.064-3.398-27.439-7.523-39.934-12.339
			C116.375,312.229,119.488,298.59,123.574,284.719z M114.298,162.967c12.439-4.786,25.815-8.894,39.899-12.292
			c-5.537,8.374-10.921,17.055-16.11,26.043c-5.195,8.997-10.025,18.008-14.512,26.999
			C119.487,189.84,116.373,176.195,114.298,162.967z M45,169.218c8.271,0,15,6.729,15,15s-6.729,15-15,15s-15-6.729-15-15
			S36.729,169.218,45,169.218z M86.007,312.528C50.322,293.243,30,268.579,30,244.218c0-5.556,1.025-11.115,3.044-16.625
			c3.81,1.052,7.816,1.625,11.956,1.625c22.221,0,40.719-16.193,44.344-37.396c3.979,16.974,9.427,34.536,16.317,52.396
			C96.593,267.725,90.027,290.715,86.007,312.528z M142.5,49.362c21.099-12.181,52.618-6.913,87.162,14.349
			c-16.909,14.412-33.564,31.627-49.411,51.275c-24.532,3.881-47.758,9.667-68.903,17.154
			C110.183,91.533,121.382,61.555,142.5,49.362z M142.5,439.074c-21.098-12.181-32.296-42.112-31.155-82.659
			c20.923,7.433,44.144,13.247,69.067,17.147c15.64,19.347,32.251,36.568,49.314,51.125
			C195.156,445.98,163.611,451.262,142.5,439.074z M255.055,406.639c-10.297-8.361-20.519-17.868-30.489-28.342
			c9.965,0.601,20.116,0.92,30.434,0.92c10.389,0,20.608-0.322,30.638-0.932C275.686,388.742,265.449,398.242,255.055,406.639z
			 M315,469.218c-8.271,0-15-6.729-15-15s6.729-15,15-15s15,6.729,15,15S323.271,469.218,315,469.218z M367.5,439.074
			c-2.796,1.614-5.778,2.918-8.913,3.937c-4.993-19.408-22.642-33.792-43.587-33.792c-13.673,0-25.933,6.138-34.193,15.794
			c-0.18-0.111-0.36-0.216-0.541-0.328c17.122-14.601,33.726-31.829,49.326-51.124c24.92-3.9,48.14-9.713,69.062-17.146
			C399.796,396.961,388.598,426.893,367.5,439.074z M398.684,132.032c-20.93-7.438-44.159-13.255-69.091-17.157
			c-15.6-19.294-32.203-36.522-49.324-51.122c32.366-19.939,62.081-25.84,83.065-16.507C361.191,52.487,360,58.215,360,64.218
			c0,22.384,16.43,40.997,37.862,44.428C398.642,116.071,398.911,123.888,398.684,132.032z M423.993,312.528
			c-4.027-21.85-10.609-44.883-19.701-68.431c6.516-16.949,11.843-33.861,15.817-50.391c1.449-6.027,2.695-11.977,3.78-17.854
			C459.638,195.145,482,219.833,482,244.218C482,268.579,459.678,293.243,423.993,312.528z"/>
	</g>
</g>
<g>
</g>
<g>
</g>
<g>
</g>
<g>
</g>
<g>
</g>
<g>
</g>
<g>
</g>
<g>
</g>
<g>
</g>
<g>
</g>
<g>
</g>
<g>
</g>
<g>
</g>
<g>
</g>
<g>
</g>
</svg>
