<?xml version="1.0" encoding="iso-8859-1"?>
<!-- Generator: Adobe Illustrator 19.0.0, SVG Export Plug-In . SVG Version: 6.00 Build 0)  -->
<svg version="1.1" id="Layer_1" xmlns="http://www.w3.org/2000/svg" xmlns:xlink="http://www.w3.org/1999/xlink" x="0px" y="0px"
	 viewBox="0 0 511.999 511.999" style="enable-background:new 0 0 511.999 511.999;" xml:space="preserve">
<g>
	<g>
		<path d="M205.933,0c-36.823,0-66.781,29.958-66.781,66.781s29.958,66.781,66.781,66.781s66.781-29.958,66.781-66.781
			S242.756,0,205.933,0z M205.933,100.171c-18.411,0-33.39-14.979-33.39-33.39c0-18.411,14.979-33.39,33.39-33.39
			c18.411,0,33.39,14.979,33.39,33.39C239.324,85.192,224.345,100.171,205.933,100.171z"/>
	</g>
</g>
<g>
	<g>
		<path d="M369.606,412.918c2.111-5.535,3.168-11.532,3.168-17.799v-78.941c0-27.617-22.357-50.085-49.974-50.085h-84.863
			c0.92-12.067,1.276-24.057,1.276-35.88v-46.564c0-44.341-53.913-66.877-85.39-35.4l-66.781,66.781
			c-19.578,19.578-19.58,51.246,0,70.826l40.044,40.044c-10.142,40.605-26.06,77.862-46.298,108.217
			c-15.368,23.038-9.188,54.099,13.891,69.46c23.083,15.383,54.139,9.088,69.45-13.89c23.507-35.248,42.527-77.238,55.534-122.381
			h53.045l0.007,27.815c0,6.266,1.168,12.262,3.278,17.796c-39.674,6.435-70.067,40.92-70.067,82.385
			c0,9.22,7.475,16.695,16.695,16.695h200.342c9.22,0,16.695-7.475,16.695-16.695C439.656,453.841,409.272,419.36,369.606,412.918z
			 M136.346,471.164c-5.118,7.681-15.482,9.735-23.159,4.619c-7.686-5.115-9.76-15.437-4.62-23.143
			c19.098-28.643,34.651-62.66,45.682-99.599c8.367,8.176,19.09,13.079,30.626,14.068
			C172.959,405.514,156.408,441.079,136.346,471.164z M205.933,230.212L205.933,230.212c0,10.446-0.401,21.039-1.175,31.707
			l-23.282-23.282c-6.519-6.519-17.09-6.519-23.61,0c-6.52,6.519-6.52,17.09,0,23.61l43.172,43.173
			c3.154,3.155,4.893,7.347,4.893,11.802c0,4.455-1.739,8.648-4.893,11.802c-6.509,6.509-17.097,6.509-23.606,0l-66.781-66.781
			c-6.529-6.531-6.528-17.076,0-23.606c75.494-75.494,65.77-65.778,66.948-66.932c10.585-10.297,28.334-2.697,28.334,11.941V230.212
			z M236.446,334.024c3.916-11.13,3.775-23.596-0.395-34.654h86.748c9.206,0,16.695,7.601,16.695,16.806v78.941
			c0,9.206-7.489,16.695-16.695,16.695c-9.206,0-16.806-7.489-16.806-16.698l-0.009-44.51c-0.002-9.219-7.365-16.581-16.584-16.581
			H236.446z M242.175,478.715c6.89-19.434,25.458-33.502,47.225-33.502h66.781c21.767,0,40.334,14.067,47.225,33.502H242.175z"/>
	</g>
</g>
<g>
</g>
<g>
</g>
<g>
</g>
<g>
</g>
<g>
</g>
<g>
</g>
<g>
</g>
<g>
</g>
<g>
</g>
<g>
</g>
<g>
</g>
<g>
</g>
<g>
</g>
<g>
</g>
<g>
</g>
</svg>
