<?xml version="1.0" encoding="iso-8859-1"?>
<!-- Generator: Adobe Illustrator 19.0.0, SVG Export Plug-In . SVG Version: 6.00 Build 0)  -->
<svg version="1.1" id="Layer_1" xmlns="http://www.w3.org/2000/svg" xmlns:xlink="http://www.w3.org/1999/xlink" x="0px" y="0px"
	 viewBox="0 0 512.001 512.001" style="enable-background:new 0 0 512.001 512.001;" xml:space="preserve">
<g>
	<g>
		<path d="M497.299,131.561l-22.966-22.966l11.821-11.821c19.601-19.602,19.602-51.325,0.001-70.925
			c-19.597-19.6-51.324-19.604-70.927-0.001l-11.821,11.822l-22.965-22.966c-19.598-19.6-51.325-19.604-70.926,0
			c-4.548,4.548-8.104,9.821-10.583,15.552c-18.739-10.745-43.662-8.594-60.343,8.091c-19.555,19.554-19.555,51.372,0,70.926
			l46.608,46.608L155.843,285.234l-46.608-46.608c-19.554-19.555-51.373-19.554-70.927,0c-16.325,16.324-19.01,41.19-8.078,60.338
			c-5.735,2.48-11.012,6.037-15.564,10.588c-19.555,19.554-19.555,51.372,0,70.925l22.966,22.966l-11.821,11.821
			c-19.555,19.554-19.555,51.372,0,70.927c19.554,19.553,51.37,19.553,70.925,0l11.821-11.821l22.966,22.966
			c19.552,19.552,51.372,19.554,70.927,0c4.552-4.552,8.109-9.829,10.589-15.564c19.256,10.993,44.082,8.178,60.338-8.078h0.001
			c19.552-19.554,19.552-51.37-0.001-70.925L226.77,356.16l129.355-129.355l46.607,46.607c19.598,19.601,51.325,19.604,70.927,0
			c16.688-16.687,18.835-41.608,8.091-60.343c5.73-2.479,11.003-6.034,15.549-10.582C516.9,182.887,516.902,151.164,497.299,131.561
			z M438.871,49.49c6.533-6.533,17.108-6.534,23.642,0c6.534,6.535,6.534,17.107,0,23.642l-11.82,11.821L427.05,61.311
			L438.871,49.49z M73.095,462.549c-6.519,6.519-17.123,6.519-23.642,0c-6.519-6.519-6.519-17.124,0-23.643l11.82-11.82
			l23.642,23.642L73.095,462.549z M178.809,473.694c-6.518,6.519-17.123,6.519-23.643,0
			c-4.816-4.816-108.358-108.358-116.858-116.858c-6.519-6.519-6.519-17.124,0-23.642c6.52-6.518,17.124-6.518,23.642,0
			c1.671,1.671,115.193,115.192,116.864,116.864C185.327,456.576,185.326,467.179,178.809,473.694z M249.734,426.41
			c6.519,6.519,6.519,17.124,0.001,23.643c-6.519,6.518-17.122,6.52-23.643,0c-6.941-6.941-156.719-156.719-164.142-164.142
			c-6.519-6.519-6.519-17.124,0-23.642c6.519-6.518,17.123-6.519,23.643,0C90.639,267.315,237.137,413.813,249.734,426.41z
			 M203.127,332.518l-23.643-23.643L308.839,179.52l23.643,23.643L203.127,332.518z M450.016,249.771
			c-6.532,6.532-17.108,6.534-23.642,0L262.232,85.629c-6.519-6.519-6.519-17.124,0.001-23.643c6.531-6.532,17.106-6.533,23.641,0
			l164.142,164.143C456.55,232.664,456.55,243.236,450.016,249.771z M473.657,178.845c-6.533,6.534-17.108,6.534-23.642,0
			L333.158,61.986c-6.533-6.533-6.535-17.106,0.001-23.642c6.532-6.533,17.106-6.533,23.641,0
			c4.847,4.847,108.41,108.411,116.858,116.859C480.192,161.737,480.192,172.31,473.657,178.845z"/>
	</g>
</g>
<g>
</g>
<g>
</g>
<g>
</g>
<g>
</g>
<g>
</g>
<g>
</g>
<g>
</g>
<g>
</g>
<g>
</g>
<g>
</g>
<g>
</g>
<g>
</g>
<g>
</g>
<g>
</g>
<g>
</g>
</svg>
