<?xml version="1.0" encoding="iso-8859-1"?>
<!-- Generator: Adobe Illustrator 19.0.0, SVG Export Plug-In . SVG Version: 6.00 Build 0)  -->
<svg version="1.1" id="Layer_1" xmlns="http://www.w3.org/2000/svg" xmlns:xlink="http://www.w3.org/1999/xlink" x="0px" y="0px"
	 viewBox="0 0 512 512" style="enable-background:new 0 0 512 512;" xml:space="preserve">
<g>
	<g>
		<path d="M433.02,167.973c-3.994-14.465-9.732-28.312-17.154-41.384c5.384-8.119,8.279-17.636,8.279-27.601
			c0-13.379-5.21-25.957-14.671-35.417c-17.096-17.097-43.578-19.224-63.012-6.389c-13.074-7.423-26.922-13.164-41.391-17.158
			C300.4,17.212,280.173,0,256,0s-44.4,17.212-49.071,40.024c-14.468,3.994-28.317,9.735-41.391,17.158
			c-19.434-12.836-45.915-10.709-63.012,6.389c-17.504,17.503-18.974,44.044-6.392,63.018
			c-7.422,13.072-13.162,26.919-17.154,41.384c-22.812,4.671-40.024,24.899-40.024,49.071c0,24.172,17.212,44.399,40.024,49.071
			c3.994,14.465,9.732,28.313,17.154,41.384c-12.58,18.97-11.114,45.513,6.392,63.018c17.096,17.097,43.578,19.224,63.012,6.389
			c4.185,2.376,8.449,4.577,12.788,6.606l-34.234,95.097h-21.658c-9.22,0-16.696,7.475-16.696,16.696S113.214,512,122.435,512
			c12.912,0,251.201,0,267.13,0c9.22,0,16.696-7.475,16.696-16.696s-7.475-16.696-16.696-16.696h-21.658l-34.235-95.097
			c4.339-2.029,8.603-4.231,12.788-6.606c8.334,5.505,17.965,8.258,27.596,8.258c12.826,0,25.652-4.882,35.416-14.647
			c17.504-17.503,18.974-44.044,6.392-63.018c7.422-13.072,13.162-26.919,17.154-41.384c22.813-4.671,40.025-24.899,40.025-49.071
			C473.043,192.872,455.831,172.644,433.02,167.973z M362.25,87.181c6.511-6.509,17.102-6.509,23.612,0
			c6.526,6.527,6.526,17.085,0,23.611c-6.524,6.524-17.086,6.526-23.612,0C355.724,104.267,355.724,93.708,362.25,87.181z
			 M300.304,73.414c8.954,2.753,17.605,6.339,25.895,10.733c-3.669,11.882-2.833,25,2.645,36.442l-51.262,51.262
			c-1.583-0.759-3.216-1.43-4.885-2.022V97.302C284.611,93.076,294.461,84.464,300.304,73.414z M326.198,349.941
			c-8.219,4.355-16.843,7.949-25.895,10.732c-5.842-11.05-15.693-19.662-27.608-23.888v-72.526c1.67-0.592,3.302-1.263,4.885-2.022
			l51.262,51.262C323.379,324.913,322.521,338.03,326.198,349.941z M183.157,313.498l51.262-51.262
			c1.583,0.759,3.216,1.43,4.885,2.022v72.526c-11.915,4.226-21.766,12.838-27.608,23.888c-9.042-2.778-17.667-6.37-25.895-10.732
			C189.47,338.058,188.634,324.94,183.157,313.498z M256,367.304c9.206,0,16.696,7.49,16.696,16.696s-7.49,16.696-16.696,16.696
			c-9.206,0-16.696-7.49-16.696-16.696S246.794,367.304,256,367.304z M239.304,217.043c0-9.206,7.49-16.696,16.696-16.696
			c9.206,0,16.696,7.49,16.696,16.696c0,9.206-7.49,16.696-16.696,16.696C246.794,233.739,239.304,226.249,239.304,217.043z
			 M256,33.391c9.206,0,16.696,7.49,16.696,16.696S265.206,66.783,256,66.783c-9.206,0-16.696-7.49-16.696-16.696
			S246.794,33.391,256,33.391z M185.801,84.146c8.29-4.394,16.941-7.981,25.895-10.733c5.842,11.051,15.693,19.663,27.608,23.889
			v72.526c-1.67,0.592-3.302,1.263-4.885,2.022l-51.262-51.262C188.621,109.174,189.479,96.057,185.801,84.146z M137.945,82.3
			c9.193,0,16.696,7.421,16.696,16.688c0,9.226-7.466,16.696-16.696,16.696c-4.46,0-8.653-1.736-11.806-4.89
			c-3.153-3.153-4.891-7.346-4.891-11.805C121.248,89.702,128.769,82.3,137.945,82.3z M123.12,146.814
			c11.853,3.651,24.847,2.869,36.404-2.636l51.284,51.283c-0.759,1.584-1.431,3.216-2.023,4.886h-72.526
			c-4.226-11.915-12.838-21.766-23.888-27.608C115.128,163.774,118.718,155.113,123.12,146.814z M89.044,233.739
			c-9.206,0-16.696-7.49-16.696-16.696c0-9.206,7.49-16.696,16.696-16.696c9.206,0,16.696,7.49,16.696,16.696
			C105.739,226.249,98.249,233.739,89.044,233.739z M149.75,346.906c-6.512,6.51-17.102,6.509-23.612,0
			c-6.525-6.526-6.526-17.085,0-23.611c6.524-6.524,17.086-6.526,23.612,0C156.276,329.82,156.276,340.379,149.75,346.906z
			 M159.524,289.909c-11.409-5.436-24.46-6.314-36.403-2.635c-4.403-8.3-7.994-16.962-10.751-25.927
			c11.05-5.842,19.662-15.693,23.888-27.608h72.526c0.592,1.67,1.263,3.302,2.024,4.886L159.524,289.909z M179.581,478.609
			l28.643-79.566c6.403,20.29,25.397,35.044,47.776,35.044s41.373-14.755,47.775-35.044l28.644,79.566H179.581z M385.862,346.906
			c-6.51,6.51-17.1,6.511-23.612,0c-6.526-6.527-6.526-17.085,0-23.611c6.523-6.524,17.086-6.526,23.612,0
			C392.388,329.82,392.387,340.379,385.862,346.906z M388.878,287.273c-11.942-3.677-24.993-2.8-36.403,2.635l-51.284-51.284
			c0.759-1.584,1.431-3.216,2.023-4.886h72.526c4.226,11.915,12.838,21.766,23.888,27.608
			C396.872,270.312,393.282,278.973,388.878,287.273z M375.741,200.348h-72.526c-0.592-1.67-1.263-3.302-2.023-4.886l51.284-51.283
			c10.965,5.225,23.929,6.478,36.403,2.633c4.403,8.3,7.994,16.962,10.751,25.928C388.579,178.582,379.967,188.433,375.741,200.348z
			 M422.957,233.739c-9.206,0-16.696-7.49-16.696-16.696c0-9.206,7.49-16.696,16.696-16.696c9.206,0,16.696,7.49,16.696,16.696
			C439.652,226.249,432.162,233.739,422.957,233.739z"/>
	</g>
</g>
<g>
</g>
<g>
</g>
<g>
</g>
<g>
</g>
<g>
</g>
<g>
</g>
<g>
</g>
<g>
</g>
<g>
</g>
<g>
</g>
<g>
</g>
<g>
</g>
<g>
</g>
<g>
</g>
<g>
</g>
</svg>
