<?xml version="1.0" encoding="iso-8859-1"?>
<!-- Generator: Adobe Illustrator 19.0.0, SVG Export Plug-In . SVG Version: 6.00 Build 0)  -->
<svg version="1.1" id="Layer_1" xmlns="http://www.w3.org/2000/svg" xmlns:xlink="http://www.w3.org/1999/xlink" x="0px" y="0px"
	 viewBox="0 0 512.002 512.002" style="enable-background:new 0 0 512.002 512.002;" xml:space="preserve">
<g>
	<g>
		<path d="M510.282,465.741l-79.77-162.451c-2.824-5.753-8.675-9.399-15.084-9.399h-7.194c-9.066-11.219-22.916-18.01-37.581-18.01
			c-0.175,0-0.351,0-0.527,0.002c-0.117-0.002-0.232-0.003-0.348-0.003h-32.7v-24.306c1.036,0.421,2.095,0.8,3.174,1.136
			l73.7,22.885c10.118,3.15,20.858,2.171,30.236-2.756c9.381-4.926,16.281-13.212,19.43-23.329
			c6.501-20.885-5.202-43.164-26.097-49.669l-65.821-20.44l-52.827-46.453c-7.174-6.318-16.172-9.762-25.639-9.884
			c11.043-8.675,18.159-22.137,18.159-37.237V69.397c0-26.108-21.241-47.347-47.348-47.347h-16.429
			c-26.108,0-47.347,21.24-47.347,47.347v16.43c0,15.115,7.129,28.588,18.19,37.263c-9.34,0.199-18.257,3.637-25.322,9.857
			L140.3,179.408l-65.834,20.443c-10.117,3.15-18.403,10.051-23.329,19.431c-4.926,9.381-5.905,20.118-2.755,30.234
			c3.149,10.117,10.05,18.403,19.43,23.329c9.381,4.926,20.118,5.906,30.225,2.759l73.723-22.892c0.958-0.298,1.9-0.631,2.824-0.997
			v24.164h-33.211c-0.316,0-0.631,0.009-0.943,0.026c-14.224,0.464-27.313,7.134-36.022,17.985h-7.833
			c-6.41,0-12.26,3.646-15.084,9.399L1.721,465.74c-2.558,5.209-2.247,11.368,0.82,16.293c3.069,4.925,8.461,7.919,14.263,7.919
			h478.391c5.803,0,11.195-2.994,14.263-7.919C512.529,477.109,512.84,470.95,510.282,465.741z M364.066,311.09
			c0.895-0.463,1.72-1.007,2.493-1.599h2.552c0.381,0.017,0.76,0.018,1.145,0.007c5.591-0.169,10.857,2.95,13.413,7.925
			c1.78,3.466,2.104,7.418,0.912,11.127c-1.191,3.712-3.758,6.736-7.253,8.53l-79.003,40.77c-0.205-4.185-0.961-8.371-2.278-12.467
			c-1.774-5.521-4.476-10.576-7.943-15.007L364.066,311.09z M346.969,218.492c0.08,0.059,0.26,0.192,0.521,0.407
			C347.319,218.761,347.145,218.624,346.969,218.492z M233.881,69.397c0-7.575,6.162-13.737,13.737-13.737h16.429
			c7.575,0,13.738,6.162,13.738,13.737v16.43c0,7.574-6.163,13.736-13.738,13.736h-16.429c-7.575,0-13.737-6.162-13.737-13.736
			V69.397z M164.516,218.906c0.252-0.21,0.427-0.338,0.505-0.397C164.849,218.638,164.681,218.771,164.516,218.906z M164.474,218.94
			c-0.17,0.139-0.338,0.282-0.503,0.429c-0.654,0.581-1.394,1.003-2.187,1.249L88.06,243.51c-2.085,0.65-3.789,0.016-4.617-0.42
			c-0.829-0.436-2.317-1.477-2.967-3.564c-0.649-2.084-0.015-3.787,0.421-4.616c0.436-0.829,1.477-2.318,3.552-2.964l69.245-21.502
			c2.256-0.7,4.339-1.869,6.114-3.429l55.536-48.835c1.516-1.334,3.172-1.549,4.303-1.491c0.381,0.02,0.764,0.026,1.142,0.018
			c3.224-0.027,66.855-0.027,70.096,0c0.465,0.01,0.924-0.002,1.384-0.031c0.939-0.053,2.756,0.056,4.404,1.507l55.528,48.827
			c1.775,1.561,3.857,2.729,6.114,3.429l69.232,21.498c3.19,0.993,4.976,4.395,3.984,7.585c-0.649,2.085-2.137,3.127-2.966,3.563
			c-0.828,0.436-2.531,1.071-4.63,0.417l-73.701-22.885c-0.803-0.251-1.543-0.672-2.197-1.253c-0.165-0.147-0.334-0.291-0.505-0.431
			c-1.171-0.996-9.138-7.957-16.182-14.125c-4.961-4.346-12.006-5.385-18.012-2.663c-6.006,2.725-9.865,8.71-9.865,15.305v75.238
			c0,3.811,1.284,7.316,3.423,10.135l-50.628,26.184l-51.211-26.529c1.98-2.757,3.145-6.137,3.145-9.79v-74.935
			c0-6.596-3.857-12.58-9.865-15.304c-6.006-2.726-13.051-1.684-18.012,2.661C173.428,211.144,165.629,217.957,164.474,218.94z
			 M129.006,317.421c2.455-4.781,7.325-7.818,12.708-7.927c0.045-0.001,0.087-0.002,0.132-0.003h4.242
			c0.774,0.594,1.613,1.129,2.511,1.594l99.98,51.791c0.029,0.015,0.057,0.03,0.085,0.045l8.157,4.226
			c3.467,1.782,6.034,4.807,7.226,8.518c1.191,3.711,0.867,7.661-0.914,11.128c-1.78,3.467-4.804,6.033-8.515,7.225
			c-3.706,1.191-7.661,0.868-11.079-0.888l-108.222-56.062c-3.469-1.781-6.034-4.805-7.225-8.517
			C126.901,324.841,127.226,320.89,129.006,317.421z M43.781,456.343l54.727-111.452c4.512,9.48,11.945,17.188,21.403,22.046
			l43.085,22.32c-5.729,13.19-5.302,28.294,1.338,41.217c5.883,11.454,15.873,19.931,28.131,23.87
			c3.016,0.969,6.079,1.633,9.156,1.999H43.781z M202.748,422.344c-3.711-1.192-6.734-3.758-8.517-7.228
			c-1.648-3.206-2.03-6.86-1.156-10.277l26.427,13.69l-5.625,2.903C210.41,423.213,206.456,423.535,202.748,422.344z
			 M212.883,456.343c5.638-0.671,11.172-2.354,16.381-5.029l163.452-84.349c9.266-4.76,16.582-12.212,21.124-21.376l54.385,110.755
			H212.883z"/>
	</g>
</g>
<g>
</g>
<g>
</g>
<g>
</g>
<g>
</g>
<g>
</g>
<g>
</g>
<g>
</g>
<g>
</g>
<g>
</g>
<g>
</g>
<g>
</g>
<g>
</g>
<g>
</g>
<g>
</g>
<g>
</g>
</svg>
