<?xml version="1.0" encoding="iso-8859-1"?>
<!-- Generator: Adobe Illustrator 19.0.0, SVG Export Plug-In . SVG Version: 6.00 Build 0)  -->
<svg version="1.1" id="Layer_1" xmlns="http://www.w3.org/2000/svg" xmlns:xlink="http://www.w3.org/1999/xlink" x="0px" y="0px"
	 viewBox="0 0 512 512" style="enable-background:new 0 0 512 512;" xml:space="preserve">
<g>
	<g>
		<path d="M424.119,71.073c-1.952,0-191.675-0.014-193.052,0.026c-1.887,0.06,2.11-0.541-87.66,14.814
			c-14.996,2.568-25.88,15.473-25.88,30.685v25.698H16.659c-9.2,0-16.659,7.459-16.659,16.659s7.459,16.659,16.659,16.659h100.867
			v25.698c0,15.213,10.884,28.118,25.882,30.685c90.426,15.468,85.829,14.84,88.168,14.84h61.344v22.986
			c0,15.524,11.112,28.5,25.8,31.392l-5.828,65.979c-3.498,39.595,27.766,73.737,67.51,73.737c37.37,0,67.773-30.403,67.773-67.773
			V243.461C484.971,232.97,512,199.07,512,158.954C512,110.497,472.577,71.073,424.119,71.073z M214.917,210.425l-64.074-10.959
			v-81.024l64.074-10.959V210.425z M414.86,373.155h-0.002c0,18.999-15.457,34.456-34.456,34.456
			c-20.208,0-36.1-17.361-34.322-37.488l7.378-83.502c0.412-4.654-1.151-9.269-4.307-12.715c-3.156-3.446-7.613-5.41-12.286-5.41
			h-10.625v-21.662h88.621V373.155z M429.737,213.23c-4.513,0.461,6.831,0.289-181.503,0.289V104.391h175.885
			c30.087,0,54.564,24.477,54.564,54.564C478.683,187.143,457.194,210.408,429.737,213.23z"/>
	</g>
</g>
<g>
	<g>
		<path d="M413.899,109.8c-9.2,0-16.659,7.459-16.659,16.659v32.496c0,9.2,7.459,16.659,16.659,16.659s16.659-7.459,16.659-16.659
			v-32.496C430.558,117.259,423.099,109.8,413.899,109.8z"/>
	</g>
</g>
<g>
	<g>
		<path d="M357.49,109.8c-9.2,0-16.659,7.459-16.659,16.659v32.496c0,9.2,7.459,16.659,16.659,16.659
			c9.2,0,16.659-7.459,16.659-16.659v-32.496C374.148,117.259,366.69,109.8,357.49,109.8z"/>
	</g>
</g>
<g>
	<g>
		<path d="M301.08,109.8c-9.2,0-16.659,7.459-16.659,16.659v32.496c0,9.2,7.459,16.659,16.659,16.659
			c9.2,0,16.659-7.459,16.659-16.659v-32.496C317.739,117.259,310.28,109.8,301.08,109.8z"/>
	</g>
</g>
<g>
</g>
<g>
</g>
<g>
</g>
<g>
</g>
<g>
</g>
<g>
</g>
<g>
</g>
<g>
</g>
<g>
</g>
<g>
</g>
<g>
</g>
<g>
</g>
<g>
</g>
<g>
</g>
<g>
</g>
</svg>
