<?xml version="1.0" encoding="iso-8859-1"?>
<!-- Generator: Adobe Illustrator 19.0.0, SVG Export Plug-In . SVG Version: 6.00 Build 0)  -->
<svg version="1.1" id="Layer_1" xmlns="http://www.w3.org/2000/svg" xmlns:xlink="http://www.w3.org/1999/xlink" x="0px" y="0px"
	 viewBox="0 0 512.002 512.002" style="enable-background:new 0 0 512.002 512.002;" xml:space="preserve">
<g>
	<g>
		<path d="M501.848,210.58l-7.337-79.382c-0.533-5.752-3.076-11.17-7.162-15.258L378.674,7.268C373.987,2.581,367.757,0,361.13,0
			c-6.626,0-12.858,2.581-17.544,7.268l-49.23,49.23c-4.686,4.686-7.268,10.916-7.268,17.544c0,6.627,2.581,12.858,7.268,17.544
			l38.202,38.202l-9.797,9.798l-38.202-38.202c-4.686-4.686-10.917-7.266-17.544-7.266c-6.626,0-12.858,2.581-17.544,7.268
			l-49.231,49.23c-9.672,9.674-9.672,25.415,0.001,35.088l38.202,38.202l-62.851,62.85c-7.795-5.909-17.251-9.116-27.203-9.116
			c-12.061,0-23.401,4.698-31.926,13.224c-6.94,6.937-9.448,17.028-7.459,29.993c2.065,13.469-4.667,26.766-16.753,33.087
			c-24.461,12.793-50.665,30.529-62.306,42.171c-26.527,26.527-26.53,69.463,0,95.992c26.527,26.526,69.463,26.53,95.991,0
			c11.642-11.641,29.376-37.845,42.171-62.306c6.349-12.138,19.6-18.823,33.088-16.753c10.979,1.683,22.112,0.422,29.992-7.459
			c16.105-16.105,17.466-41.445,4.105-59.126l62.856-62.856l10.767,10.767c4.086,4.089,9.508,6.633,15.263,7.165
			c85.574,7.91,81.662,7.443,81.662,7.443c6.626,0,12.858-2.581,17.544-7.268l13.209-13.209c9.673-9.673,9.673-25.415,0-35.088
			l-54.129-54.129l9.798-9.797l54.129,54.129c4.686,4.686,10.917,7.268,17.545,7.268c6.626,0,12.858-2.581,17.544-7.268
			l13.209-13.209C499.917,225.176,502.528,217.95,501.848,210.58z M209.036,380.462c-0.623-0.017-1.549-0.082-2.804-0.275
			c-27.509-4.222-54.604,9.39-67.583,34.205c-12.346,23.606-28.11,46.099-36.219,54.207c-13.537,13.536-35.444,13.538-48.982,0
			c-13.535-13.534-13.538-35.444,0-48.982c8.109-8.109,30.603-23.874,54.208-36.219c24.678-12.907,38.424-40.068,34.203-67.583
			c-0.188-1.228-0.257-2.148-0.274-2.806c4.53-3.168,10.994-2.877,15.227,1.357c5.75,5.75,38.656,38.656,43.534,43.534
			c0.001,0.001,0.003,0.002,0.004,0.004l7.331,7.331C211.818,369.371,212.268,375.82,209.036,380.462z M212.098,322.642
			l-12.694-12.694l62.543-62.542c6.642,6.642,9.576,9.576,12.694,12.694L212.098,322.642z M407.124,270.959l-4.45,4.451
			l-72.407-6.694L229.707,168.155l37.308-37.306L407.124,270.959z M346.265,163.088l9.797-9.797
			c4.435,4.435,5.862,5.86,12.694,12.693l-9.798,9.797L346.265,163.088z M463.932,214.151l-140.11-140.11l37.308-37.308
			l100.561,100.56l6.694,72.407L463.932,214.151z"/>
	</g>
</g>
<g>
</g>
<g>
</g>
<g>
</g>
<g>
</g>
<g>
</g>
<g>
</g>
<g>
</g>
<g>
</g>
<g>
</g>
<g>
</g>
<g>
</g>
<g>
</g>
<g>
</g>
<g>
</g>
<g>
</g>
</svg>
