<?xml version="1.0" encoding="iso-8859-1"?>
<!-- Generator: Adobe Illustrator 19.0.0, SVG Export Plug-In . SVG Version: 6.00 Build 0)  -->
<svg version="1.1" id="Layer_1" xmlns="http://www.w3.org/2000/svg" xmlns:xlink="http://www.w3.org/1999/xlink" x="0px" y="0px"
	 viewBox="0 0 512 512" style="enable-background:new 0 0 512 512;" xml:space="preserve">
<g>
	<g>
		<g>
			<path d="M222.074,197.239c-32.477,18.75-43.588,60.207-24.836,92.686c18.707,32.402,60.286,43.542,92.686,24.836
				c32.477-18.75,43.588-60.207,24.836-92.686C296.052,189.673,254.473,178.533,222.074,197.239z M269.933,280.133
				c-13.308,7.682-30.384,3.108-38.066-10.2c-7.701-13.337-3.14-30.364,10.2-38.066c13.313-7.688,30.388-3.1,38.068,10.2
				C287.834,255.404,283.273,272.432,269.933,280.133z"/>
			<path d="M355.873,83.012c-52.093-110.647-147.623-110.718-199.749,0C34.712,72.784-13.791,155.171,56.249,256
				c-69.974,100.735-21.693,183.187,99.875,172.988c52.093,110.647,147.623,110.718,199.749,0
				c122.644,10.289,169.32-73.014,99.875-172.988C525.835,155.105,477.208,72.789,355.873,83.012z M140.99,122.21
				c-5.822,18.61-10.376,38.611-13.573,59.554c-16.542,13.245-31.592,27.195-44.801,41.546
				C43.849,160.2,65.58,120.159,140.99,122.21z M122.16,272.171c-5.363-5.33-10.441-10.726-15.199-16.171
				c4.758-5.445,9.837-10.84,15.199-16.171C121.812,250.909,121.811,261.05,122.16,272.171z M82.616,288.691
				c13.209,14.352,28.26,28.301,44.801,41.546c3.2,20.948,7.756,40.957,13.58,59.573C66.778,391.832,43.304,352.687,82.616,288.691z
				 M330.518,126.929c2.336,6.843,4.47,13.938,6.404,21.249c-9.42-5.84-18.202-10.913-28.008-16.171
				C316.212,130.028,323.425,128.327,330.518,126.929z M314.379,89.5c-19.034,4.264-38.639,10.323-58.381,18.026
				c-19.742-7.704-39.347-13.761-58.381-18.026C232.823,24.498,278.453,23.165,314.379,89.5z M181.479,126.929
				c7.093,1.398,14.306,3.099,21.604,5.078c-9.768,5.238-18.551,10.307-28.008,16.171
				C177.01,140.868,179.143,133.772,181.479,126.929z M181.479,385.072c-2.336-6.843-4.47-13.94-6.404-21.249
				c9.42,5.84,18.202,10.913,28.008,16.171C195.786,381.973,188.574,383.674,181.479,385.072z M197.618,422.501
				c19.034-4.264,38.639-10.323,58.381-18.026c19.742,7.704,39.347,13.761,58.381,18.026
				C279.176,487.503,233.544,488.836,197.618,422.501z M330.518,385.072c-7.095-1.398-14.306-3.099-21.604-5.078
				c9.768-5.238,18.551-10.307,28.008-16.171C334.988,371.133,332.854,378.229,330.518,385.072z M347.16,308.632
				c-27.84,20.623-59.349,38.819-91.16,52.631c-31.781-13.797-63.294-31.987-91.16-52.631c-3.941-34.422-3.945-70.808,0-105.264
				c27.838-20.624,59.349-38.821,91.16-52.631c31.781,13.797,63.294,31.987,91.16,52.631
				C351.101,237.791,351.105,274.177,347.16,308.632z M371.002,389.81c5.824-18.615,10.38-38.623,13.58-59.573
				c16.543-13.245,31.592-27.195,44.801-41.546C468.073,351.677,446.417,391.861,371.002,389.81z M389.839,239.83
				c5.363,5.33,10.441,10.727,15.199,16.171c-4.758,5.445-9.837,10.84-15.199,16.171
				C390.187,261.092,390.188,250.951,389.839,239.83z M429.383,223.31c-13.21-14.352-28.26-28.301-44.801-41.546
				c-3.199-20.948-7.756-40.956-13.58-59.573C444.897,120.179,468.869,159.027,429.383,223.31z"/>
		</g>
	</g>
</g>
<g>
</g>
<g>
</g>
<g>
</g>
<g>
</g>
<g>
</g>
<g>
</g>
<g>
</g>
<g>
</g>
<g>
</g>
<g>
</g>
<g>
</g>
<g>
</g>
<g>
</g>
<g>
</g>
<g>
</g>
</svg>
