<?xml version="1.0" encoding="iso-8859-1"?>
<!-- Generator: Adobe Illustrator 18.0.0, SVG Export Plug-In . SVG Version: 6.00 Build 0)  -->
<!DOCTYPE svg PUBLIC "-//W3C//DTD SVG 1.1//EN" "http://www.w3.org/Graphics/SVG/1.1/DTD/svg11.dtd">
<svg version="1.1" id="Capa_1" xmlns="http://www.w3.org/2000/svg" xmlns:xlink="http://www.w3.org/1999/xlink" x="0px" y="0px"
	 viewBox="0 0 487.823 487.823" style="enable-background:new 0 0 487.823 487.823;" xml:space="preserve">
<g>
	<path d="M399.455,134.692c28.085,0,50.934-22.849,50.934-50.933c0-28.085-22.849-50.934-50.934-50.934
		c-28.085,0-50.934,22.849-50.934,50.934C348.522,111.843,371.37,134.692,399.455,134.692z M399.455,58.825
		c13.749,0,24.934,11.186,24.934,24.934c0,13.748-11.185,24.933-24.934,24.933s-24.934-11.185-24.934-24.933
		C374.522,70.01,385.707,58.825,399.455,58.825z"/>
	<path d="M433.484,420.068c-3.123-23.345-23.887-44.427-59.286-59.626c-21.738-9.334-47.817-16.062-76.193-19.824
		c3.308-27.163,12.789-51.268,28.285-71.734c6.448-8.516,12.782-14.772,17.498-18.896c9.057,9.595,22.557,27.349,16.148,42.659
		c-2.772,6.623,0.349,14.239,6.972,17.012c1.641,0.687,3.341,1.012,5.015,1.012c5.083,0,9.911-3.001,11.997-7.983
		c8.366-19.986,1.372-39.332-8.086-53.99c7.781,4.27,16.283,11.557,24.162,23.854c2.482,3.874,6.675,5.988,10.958,5.988
		c2.401,0,4.829-0.664,7.001-2.056c6.045-3.873,7.806-11.914,3.933-17.959c-22.675-35.391-50.828-41.419-66.877-41.56
		c-1.271-4.196-3.143-8.896-5.91-13.708c-7.769-13.509-24.161-30.441-58.129-34.392c-7.129-0.826-13.586,4.28-14.415,11.412
		c-0.829,7.131,4.28,13.585,11.412,14.415c18.816,2.188,29.532,9.441,35.638,17.077c-15.461-2.671-35.292-1.465-54.053,13.275
		c-5.646,4.436-6.627,12.608-2.191,18.253c2.565,3.265,6.378,4.97,10.231,4.969c2.81,0,5.642-0.907,8.023-2.778
		c11.388-8.947,23.741-9.735,33.589-8.098c-17.235,17.35-41.049,49.835-47.092,100.67c-9.255-0.614-18.675-0.931-28.2-0.931
		c-6.385,0-12.722,0.144-18.995,0.422c3.519-65.165-21.064-103.846-38.847-123.024c13.489-3.601,32.774-4.7,50.384,9.137
		c2.381,1.871,5.212,2.778,8.023,2.778c3.853,0,7.667-1.705,10.231-4.969c4.436-5.646,3.455-13.818-2.19-18.254
		c-18.75-14.732-41.631-20.036-66.169-15.335c-1.723,0.33-3.396,0.7-5.016,1.099c0.09-0.16,0.176-0.32,0.268-0.48
		c9.077-15.783,25.818-25.197,49.756-27.981c7.132-0.83,12.241-7.283,11.412-14.414c-0.829-7.132-7.279-12.236-14.415-11.412
		c-40.568,4.717-60.073,24.816-69.292,40.845c-3.771,6.558-6.142,12.927-7.634,18.404c-18.533-0.386-53.713,5.575-82.044,49.69
		c-3.88,6.041-2.127,14.083,3.914,17.963c2.174,1.397,4.607,2.063,7.013,2.063c4.278,0,8.467-2.11,10.951-5.977
		c13.555-21.107,28.603-30.664,40.96-34.819c-13.906,18.033-27.407,44.792-15.849,72.402c2.086,4.983,6.914,7.983,11.997,7.983
		c1.673,0,3.374-0.325,5.015-1.012c6.623-2.772,9.744-10.389,6.972-17.012c-8.946-21.37,10.728-45.747,22.214-57.526
		c13.668,12.868,40.677,46.889,36.169,111.841c-31.829,3.467-61.115,10.597-85.114,20.902
		c-33.497,14.383-53.894,33.908-58.637,55.744c-10.1-3.858-22.59-7.187-41.988-7.187c-7.18,0-13,5.82-13,13c0,7.18,5.82,13,13,13
		c20.397,0,29.952,4.138,41.015,8.93c11.982,5.189,25.563,11.07,51.347,11.07c25.785,0,39.365-5.881,51.347-11.071
		c11.063-4.791,20.618-8.929,41.014-8.929c20.397,0,29.952,4.138,41.016,8.929c11.982,5.189,25.563,11.07,51.348,11.07
		c25.786,0,39.368-5.881,51.351-11.071c11.064-4.791,20.62-8.929,41.018-8.929c20.398,0,29.953,4.138,41.018,8.929
		c11.983,5.189,25.564,11.071,51.351,11.071c7.18,0,13-5.82,13-13c0-7.18-5.82-13-13-13
		C454.425,428.998,444.549,424.86,433.484,420.068z M331.105,420.068c-11.065,4.792-20.62,8.93-41.019,8.93
		c-20.397,0-29.952-4.138-41.016-8.929c-11.982-5.189-25.563-11.07-51.348-11.07c-25.785,0-39.365,5.881-51.347,11.071
		c-11.063,4.791-20.618,8.929-41.014,8.929c-10.983,0-18.82-1.201-25.444-3.057c0.141-14.297,16.55-29.838,43.964-41.609
		c31.847-13.674,74.474-21.205,120.029-21.205c45.555,0,88.183,7.531,120.029,21.205c17.555,7.538,30.588,16.621,37.738,25.934
		c-5.589-0.795-11.915-1.269-19.223-1.269C356.669,408.998,343.088,414.879,331.105,420.068z"/>
</g>
<g>
</g>
<g>
</g>
<g>
</g>
<g>
</g>
<g>
</g>
<g>
</g>
<g>
</g>
<g>
</g>
<g>
</g>
<g>
</g>
<g>
</g>
<g>
</g>
<g>
</g>
<g>
</g>
<g>
</g>
</svg>
