<?xml version="1.0" encoding="iso-8859-1"?>
<!-- Generator: Adobe Illustrator 19.0.0, SVG Export Plug-In . SVG Version: 6.00 Build 0)  -->
<svg version="1.1" id="Layer_1" xmlns="http://www.w3.org/2000/svg" xmlns:xlink="http://www.w3.org/1999/xlink" x="0px" y="0px"
	 viewBox="0 0 512.003 512.003" style="enable-background:new 0 0 512.003 512.003;" xml:space="preserve">
<g>
	<g>
		<path d="M501.891,382.715l-20.629-20.628c-11.768-11.768-29.98-13.26-43.384-4.481L361.92,246.663l99.037-99.036
			c14.294-14.294,22.166-33.355,22.166-53.674c0-20.321-7.872-39.382-22.166-53.674c-14.292-14.294-33.353-22.166-53.674-22.166
			c-20.319,0-39.38,7.872-53.673,22.166l-93.936,93.935L158.39,32.93c-14.292-14.292-33.353-22.164-53.674-22.164
			c-20.319,0-39.38,7.872-53.673,22.166C36.751,47.224,28.879,66.285,28.879,86.604s7.872,39.38,22.166,53.673l105.513,105.513
			L76.927,367c-13.564-10.985-33.575-10.176-46.188,2.434L10.11,390.063C3.59,396.583,0,405.265,0,414.511
			c0,9.247,3.59,17.931,10.11,24.448l52.168,52.168c6.74,6.74,15.592,10.111,24.446,10.11c8.853,0,17.709-3.371,24.451-10.11
			l20.626-20.629c6.52-6.52,10.11-15.202,10.11-24.448c0-6.839-1.969-13.364-5.628-18.937l125.814-86.142l115.668,75.99
			c-10.989,13.565-10.179,33.577,2.436,46.188l20.628,20.629c6.52,6.52,15.202,10.11,24.448,10.11c9.247,0,17.931-3.59,24.448-10.11
			l52.167-52.167c6.521-6.518,10.111-15.202,10.111-24.449C512,397.916,508.41,389.234,501.891,382.715z M382.157,68.825
			c6.668-6.669,15.591-10.341,25.126-10.341c9.537,0,18.46,3.672,25.129,10.341c6.669,6.669,10.341,15.592,10.341,25.129
			c0,9.535-3.672,18.458-10.341,25.127l-93.935,93.935l-50.256-50.256L382.157,68.825z M86.724,458.484l-43.973-43.973
			l12.434-12.434l43.972,43.973L86.724,458.484z M108.746,397.048c-0.558,0.314-1.272,0.223-1.733-0.235
			c-0.453-0.453-0.553-1.138-0.254-1.697l78.951-120.175l41.197,41.198L108.746,397.048z M407.578,386.877
			c-0.453,0.455-1.14,0.553-1.698,0.253l-133.043-87.405c-0.036-0.024-0.073-0.048-0.109-0.071l-15.213-9.994l-60.76-60.76
			c-0.032-0.032-0.063-0.065-0.096-0.096L79.587,111.733c-6.668-6.67-10.339-15.593-10.339-25.129
			c0-9.537,3.672-18.46,10.341-25.129c6.669-6.669,15.591-10.34,25.126-10.34c9.537,0,18.46,3.672,25.129,10.341l178.72,178.72
			l10.364,15.137c0.009,0.013,0.019,0.027,0.027,0.04l88.856,129.769C408.128,385.703,408.036,386.418,407.578,386.877z
			 M425.276,451.136l-12.432-12.434l43.972-43.972l12.434,12.432L425.276,451.136z"/>
	</g>
</g>
<g>
</g>
<g>
</g>
<g>
</g>
<g>
</g>
<g>
</g>
<g>
</g>
<g>
</g>
<g>
</g>
<g>
</g>
<g>
</g>
<g>
</g>
<g>
</g>
<g>
</g>
<g>
</g>
<g>
</g>
</svg>
