<?xml version="1.0" encoding="iso-8859-1"?>
<!-- Generator: Adobe Illustrator 19.0.0, SVG Export Plug-In . SVG Version: 6.00 Build 0)  -->
<svg version="1.1" id="Capa_1" xmlns="http://www.w3.org/2000/svg" xmlns:xlink="http://www.w3.org/1999/xlink" x="0px" y="0px"
	 viewBox="0 0 511.999 511.999" style="enable-background:new 0 0 511.999 511.999;" xml:space="preserve">
<g>
	<g>
		<path d="M469.089,97.797H353.547V68.715c0-29.315-23.849-53.164-53.164-53.164h-88.985c-29.315,0-53.164,23.849-53.164,53.164
			v29.082H42.91C19.25,97.797,0,117.046,0,140.706v265.215c0,23.66,19.25,42.91,42.91,42.91h25.834v15.815
			c0,17.536,14.266,31.802,31.802,31.802h83.797c17.535,0,31.802-14.266,31.802-31.802V448.83h77.635v15.815
			c0,17.536,14.266,31.802,31.802,31.802h83.797c17.536,0,31.801-14.266,31.801-31.802V448.83h27.909
			c23.661,0,42.911-19.25,42.911-42.91V140.706C512,117.046,492.75,97.797,469.089,97.797z M188.289,68.715
			c0-12.743,10.366-23.108,23.108-23.108h88.985c12.743,0,23.108,10.366,23.108,23.108v29.082H188.289V68.715z M186.089,464.646
			c0,0.963-0.783,1.746-1.746,1.746h-83.797c-0.963,0-1.746-0.783-1.746-1.746V448.83h87.29V464.646z M411.124,464.646
			c0,0.963-0.782,1.746-1.745,1.746h-83.797c-0.963,0-1.746-0.783-1.746-1.746V448.83h87.289V464.646z M481.944,405.921
			c0,7.087-5.767,12.854-12.855,12.854H42.91c-7.087,0-12.854-5.767-12.854-12.854V140.706c0-7.087,5.767-12.854,12.854-12.854
			h426.18c7.088,0,12.855,5.767,12.855,12.854V405.921z"/>
	</g>
</g>
<g>
	<g>
		<path d="M344.954,249.173c-7.294-8.958-18.1-14.093-29.649-14.093h-21.181v-21.179c0-11.665-5.22-22.538-14.32-29.832
			c-9.101-7.294-20.852-10.024-32.232-7.486c-17.615,3.925-29.916,19.271-29.916,37.318v21.179h-21.18
			c-11.664,0-22.537,5.22-29.831,14.32c-7.294,9.1-10.024,20.849-7.486,32.232c3.925,17.615,19.271,29.916,37.317,29.916h21.18
			v21.181c0,18.038,12.821,33.785,30.486,37.439c2.598,0.538,5.21,0.802,7.804,0.802c8.703,0,17.185-2.976,24.085-8.593
			c8.957-7.292,14.093-18.099,14.093-29.649v-21.181h21.181c18.039,0,33.785-12.822,37.439-30.486
			C355.086,269.753,352.246,258.129,344.954,249.173z M323.313,274.972c-0.781,3.778-4.151,6.52-8.008,6.52h-36.209
			c-8.299,0-15.028,6.729-15.028,15.028v36.209c0,3.382-1.888,5.425-3.015,6.341c-1.126,0.918-3.509,2.348-6.822,1.667
			c-3.778-0.781-6.521-4.151-6.521-8.008V296.52c0-8.299-6.728-15.028-15.028-15.028h-36.208c-3.86,0-7.142-2.631-7.982-6.4
			c-0.743-3.333,0.684-5.75,1.601-6.895c0.918-1.144,2.966-3.063,6.381-3.063h36.208c8.299,0,15.028-6.728,15.028-15.028V213.9
			c0-3.861,2.631-7.143,6.4-7.983c3.33-0.744,5.75,0.684,6.894,1.601c1.145,0.918,3.064,2.966,3.064,6.382v36.207
			c0,8.299,6.728,15.028,15.028,15.028h36.209c3.382,0,5.425,1.889,6.341,3.015C322.563,269.276,323.999,271.659,323.313,274.972z"
			/>
	</g>
</g>
<g>
</g>
<g>
</g>
<g>
</g>
<g>
</g>
<g>
</g>
<g>
</g>
<g>
</g>
<g>
</g>
<g>
</g>
<g>
</g>
<g>
</g>
<g>
</g>
<g>
</g>
<g>
</g>
<g>
</g>
</svg>
