<?xml version="1.0" encoding="iso-8859-1"?>
<!-- Generator: Adobe Illustrator 19.0.0, SVG Export Plug-In . SVG Version: 6.00 Build 0)  -->
<svg version="1.1" id="Capa_1" xmlns="http://www.w3.org/2000/svg" xmlns:xlink="http://www.w3.org/1999/xlink" x="0px" y="0px"
	 viewBox="0 0 512.002 512.002" style="enable-background:new 0 0 512.002 512.002;" xml:space="preserve">
<g>
	<g>
		<path d="M388.771,303.824l-58.527-58.427l92.511-92.511l10.607,10.607c7.405,7.406,19.932,5.126,24.262-4.4L510.657,42.42
			c2.587-5.692,1.373-12.392-3.049-16.814L486.393,4.395c-4.421-4.421-11.121-5.636-16.813-3.049L352.907,54.379
			c-9.523,4.329-11.799,16.863-4.399,24.262l10.606,10.607l-92.511,92.511l-58.427-58.527c5.971-33.575-4.791-68.437-29.114-92.761
			c-31.19-31.19-79.1-39.33-119.216-20.256c-4.402,2.093-7.513,6.194-8.341,10.997c-0.829,4.803,0.729,9.709,4.175,13.156L90,68.504
			v21.497H68.602l-34.135-34.42c-3.446-3.446-8.352-5.004-13.156-4.175c-4.803,0.828-8.904,3.939-10.998,8.341
			c-22.513,47.349-7.19,103.085,36.433,132.527c22.311,15.059,49.81,20.666,76.642,15.862l23.822,23.921
			c-10.499,0.699-20.798,5.04-28.805,13.047c-13.9,13.9-16.775,34.569-8.801,51.228l-96.413,96.445
			c-17.587,17.585-17.589,46.05,0,63.638l42.426,42.427c17.545,17.545,46.094,17.546,63.64,0l96.432-96.464
			c16.809,8.008,37.433,4.994,51.209-8.782c8.007-8.007,12.347-18.306,13.046-28.805l23.921,23.822
			c-4.803,26.83,0.804,54.333,15.861,76.641c29.452,43.64,85.192,58.94,132.528,36.434c4.402-2.093,7.513-6.194,8.341-10.998
			c0.829-4.803-0.729-9.709-4.175-13.156L422,443.399v-20.398h21.497l34.136,33.32c3.446,3.446,8.353,5.003,13.156,4.175
			c4.803-0.828,8.904-3.939,10.998-8.341c19.074-40.117,10.934-88.026-20.256-119.217
			C457.208,308.615,422.348,297.854,388.771,303.824z M472.53,32.958l6.513,6.513l-39.775,87.504
			c-1.384-1.384-50.981-50.982-54.242-54.242L472.53,32.958z M138.793,181.115c-3.779-3.78-9.283-5.264-14.451-3.893
			c-20.801,5.516-43.536,1.847-60.812-9.814c-24.719-16.683-36.755-45.133-32.718-73.055l20.97,20.255
			c2.814,2.813,6.629,4.393,10.607,4.393H105c8.284,0,15-6.716,15-15v-41.71c0-3.978-1.581-7.794-4.394-10.607L94.485,30.747
			c22.923-3.27,46.562,4.135,63.364,20.938c18.877,18.877,26.318,46.647,19.419,72.473c-1.382,5.174,0.099,10.691,3.885,14.478
			l64.237,64.337l-12.118,12.118c-16.625-7.958-37.298-5.129-51.227,8.801l-0.287,0.287L138.793,181.115z M98.044,477.629
			c-5.849,5.849-15.365,5.849-21.214,0l-42.426-42.427c-5.862-5.861-5.863-15.35,0-21.213l94.608-94.639
			c8.205,8.205,56.659,56.66,63.639,63.64L98.044,477.629z M245.684,372.383c-5.849,5.849-15.365,5.849-21.214,0l-84.853-84.853
			c-5.86-5.862-5.861-15.35,0.001-21.213c5.863-5.862,15.35-5.863,21.213,0l84.853,84.853
			C251.533,357.019,251.533,366.535,245.684,372.383z M266.897,308.743l-10.606,10.606l-63.64-63.64l10.607-10.607
			c5.862-5.86,15.35-5.861,21.213,0.002l42.426,42.426C272.745,293.378,272.745,302.895,266.897,308.743z M277.504,255.711
			l-21.213-21.213l124.036-124.037l21.213,21.213L277.504,255.711z M481.256,417.516l-20.938-20.938
			c-2.813-2.813-6.628-4.578-10.606-4.578h-36.116c-0.005,0-0.01,0-0.015,0h-6.294C399,392.001,392,398.717,392,407.001v6.476
			c0,0.006,0,0.012,0,0.018v36.117c0,3.978,1.581,7.793,4.394,10.606l21.255,20.971c-27.921,4.037-56.372-7.999-73.056-32.719
			c-11.661-17.275-15.329-40.009-9.813-60.811c1.37-5.167-0.113-10.672-3.893-14.451l-43.064-42.964l0.287-0.287
			c13.828-13.827,16.749-34.485,8.782-51.209l12.137-12.137l64.338,64.237c3.786,3.786,9.304,5.268,14.478,3.885
			c25.828-6.899,53.597,0.543,72.473,19.419C477.12,370.954,484.525,394.592,481.256,417.516z"/>
	</g>
</g>
<g>
	<g>
		<path d="M139.618,372.384c-5.858-5.858-15.355-5.858-21.213,0L76.83,413.989c-5.858,5.858-5.858,15.355,0,21.213
			c5.86,5.86,15.358,5.857,21.213,0.001l41.575-41.606C145.476,387.739,145.476,378.242,139.618,372.384z"/>
	</g>
</g>
<g>
</g>
<g>
</g>
<g>
</g>
<g>
</g>
<g>
</g>
<g>
</g>
<g>
</g>
<g>
</g>
<g>
</g>
<g>
</g>
<g>
</g>
<g>
</g>
<g>
</g>
<g>
</g>
<g>
</g>
</svg>
