<?xml version="1.0" encoding="iso-8859-1"?>
<!-- Generator: Adobe Illustrator 19.0.0, SVG Export Plug-In . SVG Version: 6.00 Build 0)  -->
<svg version="1.1" id="Capa_1" xmlns="http://www.w3.org/2000/svg" xmlns:xlink="http://www.w3.org/1999/xlink" x="0px" y="0px"
	 viewBox="0 0 512.001 512.001" style="enable-background:new 0 0 512.001 512.001;" xml:space="preserve">
<g>
	<g>
		<path d="M507.608,216.526c-5.849-5.849-5.849-15.365,0-21.213c5.857-5.857,5.857-15.354-0.001-21.212l-21.213-21.213
			c-5.857-5.858-15.355-5.858-21.213,0c-5.849,5.849-15.365,5.849-21.214,0c-5.848-5.849-5.848-15.365,0-21.214
			c5.858-5.858,5.857-15.355,0-21.213L401.54,68.035c-5.853-5.854-15.357-5.857-21.213,0c-5.864,5.862-15.349,5.863-21.213,0
			c-5.864-5.862-5.865-15.349,0-21.212c5.853-5.852,5.858-15.356,0-21.214L337.901,4.395c-5.857-5.858-15.355-5.858-21.213,0
			c-5.862,5.862-15.35,5.863-21.213,0c-5.852-5.854-15.357-5.857-21.213,0L4.393,274.263c-5.858,5.858-5.858,15.355,0,21.213
			c5.849,5.849,5.849,15.365,0,21.213c-5.858,5.858-5.858,15.355,0,21.213l21.213,21.213c5.857,5.858,15.355,5.857,21.213,0
			c5.864-5.863,15.349-5.864,21.214,0c5.848,5.849,5.848,15.365,0,21.213c-5.858,5.858-5.858,15.355,0,21.213l42.427,42.427
			c5.853,5.854,15.357,5.857,21.213,0c5.864-5.863,15.348-5.864,21.213,0c5.864,5.862,5.865,15.349,0,21.212
			c-5.853,5.852-5.858,15.357,0,21.214l21.214,21.213c5.853,5.852,15.356,5.858,21.213,0c5.864-5.862,15.35-5.864,21.213,0
			c5.853,5.854,15.357,5.857,21.213,0c9.618-9.618,263.851-263.852,269.868-269.868
			C513.466,231.881,513.466,222.384,507.608,216.526z M446.919,256.002l-10.606-10.606c-5.857-5.859-15.355-5.857-21.213,0
			c-5.858,5.858-5.858,15.355,0,21.213l10.606,10.606L225.33,477.591c-12.187-5.835-26.622-5.841-38.822,0l-3.604-3.604
			c7.845-16.383,5.309-37.119-8.805-51.231c-14.111-14.112-34.848-16.649-51.23-8.805l-24.833-24.833
			c7.969-16.724,5.039-37.387-8.789-51.215c-14.107-14.108-34.84-16.651-51.231-8.805l-3.619-3.62
			c5.827-12.229,5.827-26.563,0-38.791l200.39-200.391l10.606,10.607c5.856,5.858,15.355,5.858,21.213,0
			c5.858-5.858,5.858-15.355,0-21.213l-10.606-10.607l30.67-30.67c12.188,5.835,26.622,5.841,38.822,0l3.604,3.604
			c-7.845,16.383-5.309,37.119,8.805,51.231c14.112,14.114,34.849,16.647,51.23,8.805l24.833,24.833
			c-7.969,16.724-5.039,37.387,8.789,51.215s34.491,16.758,51.215,8.789l3.636,3.635c-5.826,12.229-5.826,26.563,0.001,38.791
			L446.919,256.002z"/>
	</g>
</g>
<g>
	<g>
		<path d="M330.246,139.329l-21.213-21.213c-5.857-5.859-15.355-5.857-21.213,0c-5.858,5.858-5.858,15.355,0,21.213l21.213,21.213
			c5.856,5.858,15.355,5.858,21.213,0C336.104,154.684,336.104,145.187,330.246,139.329z"/>
	</g>
</g>
<g>
	<g>
		<path d="M393.886,202.969l-21.213-21.213c-5.857-5.859-15.355-5.857-21.213,0c-5.858,5.858-5.858,15.355,0,21.213l21.213,21.213
			c5.856,5.858,15.355,5.858,21.213,0C399.744,218.324,399.744,208.827,393.886,202.969z"/>
	</g>
</g>
<g>
	<g>
		<path d="M369.784,264.353l-106.066-63.639c-5.901-3.541-13.457-2.611-18.324,2.256l-54.838,54.838
			c-2.177-4.547-5.131-8.742-8.802-12.412c-17.544-17.544-46.094-17.547-63.64,0c-17.587,17.586-17.59,46.052,0,63.64
			c17.545,17.545,46.094,17.546,63.64,0c0.002-0.002,0.003-0.003,0.005-0.005l34.14-34.14l79.55,47.729l-20.04,20.04
			c-2.177-4.547-5.131-8.742-8.802-12.412c-17.544-17.544-46.094-17.546-63.64,0c-17.587,17.586-17.59,46.052,0,63.64
			c17.545,17.545,46.094,17.546,63.64,0c3.177-3.177,103.161-103.161,106.066-106.066
			C379.575,280.921,378.137,269.366,369.784,264.353z M160.541,287.822c-5.849,5.849-15.364,5.848-21.214,0
			c-5.863-5.863-5.863-15.35,0-21.213c5.85-5.849,15.364-5.848,21.214,0C166.403,272.472,166.403,281.959,160.541,287.822z
			 M245.393,372.675c-5.85,5.849-15.364,5.848-21.214,0c-5.863-5.863-5.863-15.35,0-21.213c5.85-5.849,15.364-5.848,21.214,0
			C251.257,357.325,251.257,366.812,245.393,372.675z M317.315,300.754l-79.55-47.729l20.561-20.56l79.55,47.73L317.315,300.754z"/>
	</g>
</g>
<g>
</g>
<g>
</g>
<g>
</g>
<g>
</g>
<g>
</g>
<g>
</g>
<g>
</g>
<g>
</g>
<g>
</g>
<g>
</g>
<g>
</g>
<g>
</g>
<g>
</g>
<g>
</g>
<g>
</g>
</svg>
