<?xml version="1.0" encoding="iso-8859-1"?>
<!-- Generator: Adobe Illustrator 19.0.0, SVG Export Plug-In . SVG Version: 6.00 Build 0)  -->
<svg version="1.1" id="Capa_1" xmlns="http://www.w3.org/2000/svg" xmlns:xlink="http://www.w3.org/1999/xlink" x="0px" y="0px"
	 viewBox="0 0 512 512" style="enable-background:new 0 0 512 512;" xml:space="preserve">
<g>
	<g>
		<path d="M356.001,292.001h-5v-65c0-8.284-6.716-15-15-15h-5V37.745c0-32.808-39.01-49.733-63.054-28L193.435,77.1
			C185.533,84.242,181,94.448,181,105.1V212h-5c-8.284,0-15,6.716-15,15v65h-5c-8.284,0-15,6.716-15,15v190c0,8.284,6.716,15,15,15
			h200c8.284,0,15-6.716,15-15V307C371.001,298.717,364.285,292.001,356.001,292.001z M213.552,99.357l74.513-67.355V32
			c4.942-4.465,12.937-0.972,12.937,5.745v174.256h-90v-106.9h-0.001C211.001,102.915,211.931,100.822,213.552,99.357z
			 M191.001,242.001c38.509,0,91.496,0,130,0v50h-130V242.001z M341.001,482.001h-170v-160c20.622,0,149.304,0,170,0V482.001z"/>
	</g>
</g>
<g>
</g>
<g>
</g>
<g>
</g>
<g>
</g>
<g>
</g>
<g>
</g>
<g>
</g>
<g>
</g>
<g>
</g>
<g>
</g>
<g>
</g>
<g>
</g>
<g>
</g>
<g>
</g>
<g>
</g>
</svg>
