<?xml version="1.0" encoding="iso-8859-1"?>
<!-- Generator: Adobe Illustrator 19.0.0, SVG Export Plug-In . SVG Version: 6.00 Build 0)  -->
<svg version="1.1" id="Layer_1" xmlns="http://www.w3.org/2000/svg" xmlns:xlink="http://www.w3.org/1999/xlink" x="0px" y="0px"
	 viewBox="0 0 512 512" style="enable-background:new 0 0 512 512;" xml:space="preserve">
<g>
	<g>
		<path d="M189.07,87.514c30.304-20.202,30.281-64.775,0-84.961c-6.892-4.595-16.206-2.733-20.801,4.16
			c-4.595,6.893-2.732,16.206,4.161,20.801c12.515,8.344,12.536,26.681,0,35.039c-29.479,19.652-30.337,62.579-2.124,83.469
			c6.661,4.932,16.054,3.526,20.981-3.129c4.93-6.658,3.529-16.051-3.129-20.981C176.59,113.347,176.825,95.677,189.07,87.514z"/>
	</g>
</g>
<g>
	<g>
		<path d="M264.07,87.514c30.304-20.202,30.281-64.775,0-84.961c-6.892-4.595-16.206-2.733-20.801,4.16
			c-4.595,6.893-2.732,16.206,4.161,20.801c12.515,8.344,12.536,26.681,0,35.039c-29.479,19.652-30.337,62.579-2.124,83.469
			c6.661,4.932,16.054,3.526,20.981-3.129c4.93-6.658,3.529-16.051-3.129-20.981C251.59,113.347,251.825,95.677,264.07,87.514z"/>
	</g>
</g>
<g>
	<g>
		<path d="M339.07,87.514c30.304-20.202,30.281-64.775,0-84.961c-6.892-4.595-16.205-2.733-20.801,4.16
			c-4.595,6.893-2.732,16.206,4.161,20.801c12.515,8.344,12.536,26.681,0,35.039c-29.479,19.652-30.337,62.579-2.124,83.469
			c6.661,4.932,16.054,3.526,20.981-3.129c4.93-6.658,3.529-16.051-3.129-20.981C326.59,113.347,326.825,95.677,339.07,87.514z"/>
	</g>
</g>
<g>
	<g>
		<path d="M481.739,342.149C501.253,318.18,512,287.928,512,256.967v-30c0-24.813-20.187-45-45-45c-9.176,0-381.645,0-392,0
			c-8.284,0-15,6.716-15,15v150c0,29.354,12.113,55.927,31.596,75H15c-8.284,0-15,6.716-15,15c0,41.355,33.645,75,75,75h332
			c41.355,0,75-33.645,75-75c0-3.978-1.581-7.793-4.394-10.607c-2.813-2.813-6.628-4.393-10.606-4.393h-76.596
			c10.134-9.92,18.271-21.869,23.748-35.185C440.521,379.225,464.285,363.587,481.739,342.149z M422,346.967v-135h45
			c8.271,0,15,6.729,15,15v30c0,40.953-24.25,77.813-60.118,94.907C421.957,350.247,422,348.612,422,346.967z M449.429,451.967
			c-6.19,17.462-22.873,30-42.429,30H75c-19.556,0-36.239-12.539-42.43-30H449.429z M392,346.967c0,41.355-33.645,75-75,75H165
			c-41.355,0-75-33.644-75-75v-135h90v38.787l-40.606,40.606c-2.813,2.813-4.394,6.628-4.394,10.607v75c0,8.284,6.716,15,15,15h90
			c8.284,0,15-6.716,15-15v-75c0-3.978-1.581-7.793-4.394-10.607L210,250.754v-38.787h182V346.967z M195,278.181l30,30v53.787h-60
			v-53.787L195,278.181z"/>
	</g>
</g>
<g>
</g>
<g>
</g>
<g>
</g>
<g>
</g>
<g>
</g>
<g>
</g>
<g>
</g>
<g>
</g>
<g>
</g>
<g>
</g>
<g>
</g>
<g>
</g>
<g>
</g>
<g>
</g>
<g>
</g>
</svg>
