<?xml version="1.0" encoding="iso-8859-1"?>
<!-- Generator: Adobe Illustrator 19.0.0, SVG Export Plug-In . SVG Version: 6.00 Build 0)  -->
<svg version="1.1" id="Layer_1" xmlns="http://www.w3.org/2000/svg" xmlns:xlink="http://www.w3.org/1999/xlink" x="0px" y="0px"
	 viewBox="0 0 512 512" style="enable-background:new 0 0 512 512;" xml:space="preserve">
<g>
	<g>
		<path d="M504.549,109.92L402.744,8.116c-9.559-9.555-24.925-9.968-34.982-0.939c-18.882,16.945-45.901,23.025-70.512,15.86
			c-22.216-6.469-45.985-0.517-62.029,15.528L38.209,235.577c-15.902,15.905-21.909,39.485-15.672,61.543
			c7.017,24.82,1.024,50.978-16.031,69.977c-9.027,10.059-8.612,25.427,0.944,34.982l101.805,101.806
			c4.953,4.95,11.463,7.446,17.99,7.446c6.065,0,12.144-2.158,16.991-6.506c18.907-16.972,45.958-23.039,70.598-15.836
			c22.243,6.498,46.04,0.562,62.104-15.507l196.899-196.898c15.925-15.927,21.922-39.538,15.651-61.619
			c-6.95-24.476-0.818-51.323,16.005-70.063C514.52,134.844,514.107,119.478,504.549,109.92z M450.898,225.925
			c2.301,8.103,0.221,16.646-5.429,22.297L248.571,445.119c-5.7,5.7-14.314,7.757-22.482,5.369
			c-33.335-9.748-69.591-3.64-97.681,15.821l-83.359-83.361c19.534-27.937,25.583-63.162,16.09-96.741
			c-2.286-8.094-0.203-16.625,5.437-22.266L263.585,66.93c5.692-5.691,14.298-7.75,22.454-5.377
			c33.293,9.69,69.497,3.57,97.55-15.861l83.361,83.361C447.384,157.03,441.348,192.303,450.898,225.925z"/>
	</g>
</g>
<g>
	<g>
		<path d="M296.104,112.764c-7.832-7.832-20.532-7.832-28.365,0L112.641,267.863c-7.833,7.832-7.833,20.532,0,28.365
			c3.917,3.916,9.05,5.875,14.182,5.875c5.132,0,10.266-1.959,14.182-5.875l155.099-155.099
			C303.937,133.297,303.937,120.597,296.104,112.764z"/>
	</g>
</g>
<g>
	<g>
		<path d="M314.738,298.601c-7.83-7.833-20.532-7.833-28.363,0l-68.009,68.009c-7.833,7.832-7.833,20.532,0,28.365
			c3.916,3.916,9.05,5.875,14.182,5.875s10.266-1.959,14.182-5.875l68.009-68.009C322.571,319.134,322.571,306.434,314.738,298.601z
			"/>
	</g>
</g>
<g>
	<g>
		<path d="M346.971,163.631c-7.832-7.832-20.532-7.832-28.363,0l-155.1,155.099c-7.833,7.832-7.833,20.532,0,28.365
			c3.916,3.916,9.05,5.875,14.182,5.875s10.266-1.959,14.182-5.875l155.1-155.099C354.804,184.164,354.804,171.464,346.971,163.631z
			"/>
	</g>
</g>
<g>
</g>
<g>
</g>
<g>
</g>
<g>
</g>
<g>
</g>
<g>
</g>
<g>
</g>
<g>
</g>
<g>
</g>
<g>
</g>
<g>
</g>
<g>
</g>
<g>
</g>
<g>
</g>
<g>
</g>
</svg>
