<?xml version="1.0" encoding="iso-8859-1"?>
<!-- Generator: Adobe Illustrator 19.0.0, SVG Export Plug-In . SVG Version: 6.00 Build 0)  -->
<svg version="1.1" id="Layer_1" xmlns="http://www.w3.org/2000/svg" xmlns:xlink="http://www.w3.org/1999/xlink" x="0px" y="0px"
	 viewBox="0 0 512.003 512.003" style="enable-background:new 0 0 512.003 512.003;" xml:space="preserve">
<g>
	<g>
		<path d="M462.722,50.742C426.014,14.034,374.485-3.099,317.629,2.499c-55.328,5.445-109.293,31.939-151.951,74.597
			c-42.66,42.658-69.151,96.623-74.597,151.951c-2.941,29.878,0.404,58.28,9.558,83.836l-89.068,89.068
			c-13.543,13.542-15.555,37.138-4.14,48.552l45.358,45.358c10.476,10.476,21.517,14.683,31.523,14.683
			c10.001,0.001,18.968-4.199,25.31-10.543l88.197-88.197c20.275,7.658,42.399,11.615,65.678,11.615
			c6.879,0,13.854-0.345,20.917-1.039c55.328-5.445,109.293-31.939,151.951-74.597c42.66-42.658,69.151-96.623,74.598-151.951
			C516.559,138.975,499.427,87.447,462.722,50.742z M83.321,467.753c-0.375-0.317-0.796-0.701-1.26-1.165l-38.289-38.291
			l15.733-15.733l39.502,39.502L83.321,467.753z M128.283,422.793L88.781,383.29l31.707-31.707
			c5.555,8.012,11.836,15.554,18.837,22.553c6.351,6.351,13.153,12.107,20.344,17.271L128.283,422.793z M168.597,344.863
			c-22.203-22.203-34.886-52.022-36.862-85.713l122.575,122.575C220.62,379.749,190.799,367.066,168.597,344.863z M407.09,318.508
			c-28.763,28.762-63.369,48.755-99.556,57.894L137.057,205.925c9.138-36.186,29.132-70.792,57.895-99.556
			c41.782-41.781,94.688-63.528,143.264-63.528c36.316,0,70.209,12.152,95.229,37.173
			C491.932,138.501,480.108,245.488,407.09,318.508z"/>
	</g>
</g>
<g>
</g>
<g>
</g>
<g>
</g>
<g>
</g>
<g>
</g>
<g>
</g>
<g>
</g>
<g>
</g>
<g>
</g>
<g>
</g>
<g>
</g>
<g>
</g>
<g>
</g>
<g>
</g>
<g>
</g>
</svg>
