<?xml version="1.0" encoding="iso-8859-1"?>
<!-- Generator: Adobe Illustrator 19.0.0, SVG Export Plug-In . SVG Version: 6.00 Build 0)  -->
<svg version="1.1" id="Layer_1" xmlns="http://www.w3.org/2000/svg" xmlns:xlink="http://www.w3.org/1999/xlink" x="0px" y="0px"
	 viewBox="0 0 512 512" style="enable-background:new 0 0 512 512;" xml:space="preserve">
<g>
	<g>
		<path d="M462.762,48.513c-36.134-36.135-86.87-52.995-142.83-47.491c-54.467,5.361-107.591,31.441-149.585,73.435
			c-41.995,41.994-68.075,95.118-73.437,149.585c-4.806,48.841,7.427,93.684,34.63,128.326L6.695,477.213
			c-7.958,7.958-7.958,20.86,0,28.818C10.674,510.01,15.889,512,21.103,512c5.214,0,10.431-1.989,14.408-5.969l125.03-125.03
			c29.437,22.51,66.036,34.386,106.098,34.386c6.769,0,13.642-0.34,20.591-1.023c54.466-5.361,107.589-31.441,149.584-73.435
			c41.995-41.994,68.075-95.118,73.437-149.585C515.763,135.371,498.897,84.646,462.762,48.513z M433.944,77.331
			c9.501,9.501,17.229,20.421,23.095,32.451l-60.76,60.76l-56.033-56.033l60.559-60.559
			C412.961,59.781,424.153,67.538,433.944,77.331z M367.46,199.36l-72.251,72.252l-56.033-56.033l72.251-72.252L367.46,199.36z
			 M340.198,40.738c5.191,0,10.323,0.284,15.395,0.791l-44.164,44.164l-33.437-33.437C298.717,44.629,319.842,40.738,340.198,40.738
			z M199.165,103.275c12.524-12.524,26.064-23.206,40.187-32.025l43.259,43.259l-72.251,72.252L167.08,143.48
			C176.004,129.21,186.751,115.689,199.165,103.275z M137.471,228.035c1.527-15.51,5.119-30.925,10.613-45.915l33.459,33.459
			l-44.146,44.146C136.387,249.517,136.399,238.918,137.471,228.035z M173.221,338.056c-9.675-9.675-17.506-20.822-23.41-33.112
			l60.547-60.547l56.033,56.033l-60.694,60.694C193.796,355.327,182.836,347.67,173.221,338.056z M266.966,374.649
			c-5.491,0-10.917-0.318-16.273-0.886l44.517-44.517l33.906,33.906C308.408,370.765,287.303,374.65,266.966,374.649z
			 M407.998,312.11c-12.538,12.538-26.094,23.23-40.235,32.055l-43.737-43.737l72.251-72.252l43.776,43.776
			C431.136,286.206,420.399,299.711,407.998,312.11z M469.693,187.352c-1.528,15.529-5.128,30.964-10.634,45.97l-33.963-33.964
			l44.575-44.575C470.769,165.261,470.796,176.155,469.693,187.352z"/>
	</g>
</g>
<g>
</g>
<g>
</g>
<g>
</g>
<g>
</g>
<g>
</g>
<g>
</g>
<g>
</g>
<g>
</g>
<g>
</g>
<g>
</g>
<g>
</g>
<g>
</g>
<g>
</g>
<g>
</g>
<g>
</g>
</svg>
