<?xml version="1.0" encoding="iso-8859-1"?>
<!-- Generator: Adobe Illustrator 19.0.0, SVG Export Plug-In . SVG Version: 6.00 Build 0)  -->
<svg version="1.1" id="Layer_1" xmlns="http://www.w3.org/2000/svg" xmlns:xlink="http://www.w3.org/1999/xlink" x="0px" y="0px"
	 viewBox="0 0 512.001 512.001" style="enable-background:new 0 0 512.001 512.001;" xml:space="preserve">
<g>
	<g>
		<path d="M499.487,152.736l-0.396-0.396c-7.212-7.213-17.703-9.997-27.378-7.265c-5.789,1.635-12.025,0.016-16.27-4.228
			c-4.244-4.244-5.864-10.477-4.228-16.27c2.732-9.672-0.05-20.163-7.262-27.378l-29.16-29.159
			c-7.212-7.213-17.703-9.997-27.378-7.265c-5.79,1.633-12.026,0.016-16.27-4.228c-4.244-4.244-5.864-10.477-4.228-16.27
			c2.732-9.672-0.05-20.163-7.262-27.378l-0.408-0.407c-8.055-8.054-18.803-12.494-30.252-12.494s-22.197,4.44-30.261,12.505
			L12.505,298.737C4.44,306.799,0,317.547,0,328.997s4.44,22.197,12.505,30.261c7.391,7.39,18.206,10.041,28.222,6.921
			c5.92-1.844,12.316-0.274,16.691,4.099c4.373,4.374,5.944,10.769,4.099,16.69c-3.123,10.015-0.471,20.831,6.921,28.222
			l28.366,28.366c7.39,7.39,18.202,10.042,28.222,6.921c5.92-1.844,12.316-0.274,16.691,4.099c4.373,4.374,5.944,10.769,4.099,16.69
			c-3.123,10.015-0.471,20.831,6.921,28.222c8.343,8.343,19.302,12.514,30.26,12.514c10.958,0,21.917-4.171,30.26-12.514
			l286.231-286.231C516.173,196.571,516.173,169.421,499.487,152.736z M473.415,187.185L187.184,473.415
			c-1.204,1.203-2.849,1.769-4.467,1.696c2.843-16.92-2.577-34.258-14.929-46.609c-12.805-12.808-30.975-18.162-48.474-14.582
			l-21.241-21.241c3.58-17.503-1.776-35.669-14.582-48.474c-12.352-12.353-29.694-17.769-46.612-14.929
			c-0.006-0.1-0.007-0.193-0.007-0.279c0-0.927,0.221-2.704,1.706-4.188L324.807,38.577c1.485-1.485,3.262-1.706,4.188-1.706
			c0.272,0,0.615,0.018,1.002,0.082c-2.461,16.614,3.028,33.62,15.075,45.667c12.371,12.371,29.978,17.825,47.013,14.858
			l22.427,22.427c-2.971,17.037,2.486,34.641,14.858,47.013c12.046,12.046,29.053,17.532,45.664,15.075
			C475.339,183.832,474.799,185.799,473.415,187.185z"/>
	</g>
</g>
<g>
	<g>
		<path d="M420.247,182.127l-91.251-91.25c-7.2-7.2-18.872-7.2-26.071,0c-7.2,7.2-7.2,18.872,0.001,26.071l91.251,91.25
			c3.599,3.6,8.318,5.4,13.035,5.4c4.718,0,9.435-1.801,13.035-5.4C427.447,200.999,427.447,189.327,420.247,182.127z"/>
	</g>
</g>
<g>
	<g>
		<path d="M359.413,192.557l-36.501-36.501c-7.2-7.201-18.873-7.201-26.07,0c-7.2,7.2-7.2,18.872,0,26.071l36.501,36.501
			c3.599,3.601,8.318,5.4,13.035,5.4s9.435-1.801,13.035-5.4C366.613,211.428,366.613,199.756,359.413,192.557z"/>
	</g>
</g>
<g>
	<g>
		<path d="M255.124,326.389l-70.392-70.392c-6.256-6.256-14.59-9.702-23.464-9.702c-8.875,0-17.208,3.446-23.465,9.702
			l-35.629,35.631c-6.256,6.256-9.702,14.59-9.702,23.464c0,8.875,3.446,17.208,9.702,23.465l70.392,70.394
			c6.47,6.468,14.967,9.703,23.464,9.703c8.497,0,16.995-3.234,23.463-9.703h0.001l35.631-35.632
			c6.256-6.256,9.702-14.59,9.702-23.464C264.827,340.977,261.381,332.644,255.124,326.389z M196.032,380.27l-65.179-65.179
			l30.417-30.417l65.179,65.179L196.032,380.27z"/>
	</g>
</g>
<g>
</g>
<g>
</g>
<g>
</g>
<g>
</g>
<g>
</g>
<g>
</g>
<g>
</g>
<g>
</g>
<g>
</g>
<g>
</g>
<g>
</g>
<g>
</g>
<g>
</g>
<g>
</g>
<g>
</g>
</svg>
