<?xml version="1.0" encoding="iso-8859-1"?>
<!-- Generator: Adobe Illustrator 19.0.0, SVG Export Plug-In . SVG Version: 6.00 Build 0)  -->
<svg version="1.1" id="Layer_1" xmlns="http://www.w3.org/2000/svg" xmlns:xlink="http://www.w3.org/1999/xlink" x="0px" y="0px"
	 viewBox="0 0 512.002 512.002" style="enable-background:new 0 0 512.002 512.002;" xml:space="preserve">
<g>
	<g>
		<path d="M508.118,245.286c-8.78-10.509-23.607-32.467-49.519-40.295c8.137-19.087,5.924-37.933-4.044-53.547
			c-10.976-17.195-30.513-28.872-52.264-31.238c-5.524-0.6-9.893-4.968-10.497-10.49c-2.382-21.758-14.071-41.295-31.27-52.264
			c-15.573-9.932-34.396-12.177-53.512-4.034c-7.807-25.862-29.659-40.654-40.298-49.534c-6.204-5.179-15.225-5.181-21.429,0
			c-10.561,8.808-32.492,23.607-40.305,49.514c-19.082-8.132-37.93-5.916-53.541,4.052c-17.188,10.976-28.864,30.508-31.232,52.253
			c-0.609,5.587-5.029,9.906-10.492,10.502c-21.758,2.383-41.296,14.073-52.265,31.271c-9.97,15.632-12.145,34.456-4.04,53.496
			c-25.928,7.809-40.701,29.736-49.526,40.314c-5.178,6.204-5.178,15.224,0,21.429c8.81,10.556,23.628,32.477,49.518,40.297
			c-8.171,19.172-5.874,38.014,4.05,53.554c10.976,17.189,30.511,28.864,52.257,31.231c5.516,0.599,9.89,4.954,10.495,10.49
			c2.382,21.757,14.071,41.294,31.268,52.263c15.595,9.947,34.421,12.17,53.516,4.034c7.807,25.862,29.658,40.654,40.298,49.535
			c6.202,5.177,15.222,5.178,21.429,0c8.782-7.334,22.438-16.776,32.165-31.834c3.627-5.616,6.344-11.515,8.174-17.667
			c19.004,8.085,37.838,5.937,53.506-4.065c17.191-10.976,28.868-30.512,31.235-52.261c0.6-5.524,4.968-9.891,10.491-10.494
			c21.758-2.383,41.294-14.074,52.263-31.271c10.013-15.701,12.115-34.533,4.041-53.496c25.961-7.819,40.764-29.817,49.528-40.316
			C513.296,260.512,513.296,251.491,508.118,245.286z M255.994,38.285c13.448,11.355,22.264,22.103,20.077,39.929
			c-3.008,4.144-2.372,3.285-20.072,33.924c-17.706-30.647-17.066-29.781-20.07-33.923C233.734,60.36,242.547,49.623,255.994,38.285
			z M38.283,255.991c11.33-13.447,22.06-22.263,39.93-20.063c4.214,3.058,3.919,2.738,33.925,20.072
			c-30.649,17.706-29.783,17.067-33.925,20.071C60.382,278.256,49.635,269.441,38.283,255.991z M256.002,473.712
			c-13.447-11.354-22.262-22.102-20.073-39.928c3.052-4.206,2.665-3.792,20.071-33.923c17.29,29.93,17.014,29.714,20.079,33.936
			C278.325,451.691,269.804,462.105,256.002,473.712z M426.35,342.542c-5.488,8.605-16.104,14.739-27.706,16.009
			c-21.132,2.315-37.809,19.076-40.098,40.122c-1.262,11.589-7.386,22.199-15.984,27.689c-14.43,9.214-32.638-0.106-42.182-16.531
			l-29.902-51.762c-6.431-11.135-22.536-11.12-28.958,0c-0.092,0.161-29.95,51.843-30.04,52.004
			c-7.742,13.934-26.29,26.314-42.025,16.278c-8.604-5.488-14.738-16.105-16.008-27.707c-2.31-21.09-19.028-37.803-40.123-40.096
			c-11.589-1.261-22.197-7.385-27.687-15.982c-9.404-14.73,0.57-32.973,16.531-42.185l51.762-29.902
			c11.134-6.431,11.117-22.536,0-28.958l-51.762-29.902c-0.081-0.047-0.163-0.093-0.244-0.138
			c-13.855-7.697-26.339-26.246-16.278-42.02c5.488-8.605,16.105-14.739,27.709-16.009c21.084-2.311,37.797-19.027,40.096-40.121
			c0-0.001,0-0.002,0-0.003c1.261-11.589,7.385-22.198,15.982-27.688c14.817-9.46,33.119,0.725,42.182,16.532l29.903,51.761
			c6.432,11.132,22.534,11.121,28.958-0.001c0.132-0.229,29.912-51.777,30.04-52.005c7.73-13.913,26.279-26.316,42.023-16.275
			c8.604,5.488,14.738,16.104,16.008,27.707c2.311,21.088,19.032,37.803,40.127,40.096c11.589,1.261,22.199,7.386,27.689,15.987
			c9.304,14.573-0.312,32.754-16.534,42.18l-51.762,29.902c-11.134,6.431-11.12,22.535-0.001,28.958
			c0.2,0.115,51.805,29.93,52.005,30.041C423.925,308.215,436.415,326.762,426.35,342.542z M433.781,276.07
			c-4.141-3.005-3.281-2.369-33.92-20.07c30.613-17.684,29.782-17.065,33.926-20.072c17.827-2.186,28.577,6.629,39.929,20.08
			C462.387,269.456,451.654,278.27,433.781,276.07z"/>
	</g>
</g>
<g>
	<g>
		<path d="M305.404,281.757c4.037-7.71,6.333-16.468,6.333-25.757c0-9.289-2.296-18.048-6.333-25.757l37.302-37.302
			c6.531-6.529,6.531-17.117,0-23.647c-6.529-6.529-17.117-6.529-23.647,0l-37.302,37.302c-7.71-4.037-16.468-6.333-25.757-6.333
			c-9.289,0-18.048,2.296-25.757,6.333l-37.303-37.302c-6.529-6.529-17.117-6.529-23.647,0c-6.53,6.529-6.53,17.117,0,23.647
			l37.303,37.302c-4.036,7.711-6.333,16.468-6.333,25.757c0,9.289,2.296,18.048,6.333,25.757l-37.303,37.302
			c-6.53,6.529-6.53,17.117,0,23.647c6.528,6.529,17.116,6.531,23.647,0l37.303-37.302c7.71,4.036,16.468,6.333,25.757,6.333
			c9.289,0,18.048-2.296,25.757-6.333l37.302,37.302c6.53,6.53,17.117,6.53,23.647,0c6.53-6.529,6.53-17.117,0-23.647
			L305.404,281.757z M271.819,271.688c-0.022,0.022-0.047,0.04-0.068,0.061c-0.022,0.022-0.04,0.047-0.062,0.069
			c-4.032,3.999-9.576,6.476-15.689,6.476c-6.114,0.001-11.658-2.476-15.69-6.476c-0.021-0.022-0.039-0.046-0.061-0.068
			c-0.021-0.021-0.046-0.039-0.067-0.061c-4-4.032-6.477-9.576-6.477-15.69c0-6.114,2.477-11.658,6.477-15.69
			c0.021-0.021,0.046-0.039,0.067-0.061s0.039-0.046,0.061-0.068c4.032-4,9.577-6.477,15.69-6.477s11.658,2.477,15.689,6.476
			c0.022,0.022,0.04,0.047,0.062,0.069c0.022,0.022,0.047,0.04,0.068,0.062c3.999,4.032,6.476,9.576,6.476,15.689
			C278.295,262.113,275.818,267.657,271.819,271.688z"/>
	</g>
</g>
<g>
</g>
<g>
</g>
<g>
</g>
<g>
</g>
<g>
</g>
<g>
</g>
<g>
</g>
<g>
</g>
<g>
</g>
<g>
</g>
<g>
</g>
<g>
</g>
<g>
</g>
<g>
</g>
<g>
</g>
</svg>
