<?xml version="1.0" encoding="iso-8859-1"?>
<!-- Generator: Adobe Illustrator 19.0.0, SVG Export Plug-In . SVG Version: 6.00 Build 0)  -->
<svg version="1.1" id="Layer_1" xmlns="http://www.w3.org/2000/svg" xmlns:xlink="http://www.w3.org/1999/xlink" x="0px" y="0px"
	 viewBox="0 0 512.002 512.002" style="enable-background:new 0 0 512.002 512.002;" xml:space="preserve">
<g>
	<g>
		<path d="M507.103,436.156l-47.298-47.299c-15.643-15.643-38.718-18.615-57.11-9.812l-28.746-28.746
			c33.524-36.953,63.256-85.231,88.514-143.79c28.265-65.532,41.528-122.48,45.92-143.923c7.183-35.079-23.925-66.147-58.969-58.969
			c-21.443,4.39-78.391,17.654-143.923,45.919c-58.56,25.258-106.837,54.99-143.79,88.514l-28.767-28.767
			c8.881-18.644,5.624-41.674-9.79-57.089L75.846,4.898c-6.53-6.531-17.118-6.531-23.649,0L4.899,52.196
			c-6.531,6.531-6.531,17.118,0,23.649l47.298,47.299c15.386,15.385,38.386,18.699,57.089,9.789l28.767,28.767
			c-33.524,36.953-63.256,85.23-88.514,143.79C21.274,371.022,8.009,427.97,3.619,449.414
			c-7.184,35.084,23.928,66.138,58.969,58.969c21.443-4.391,78.391-17.654,143.923-45.92c58.56-25.258,106.836-54.99,143.79-88.514
			l28.746,28.746c-8.751,18.282-5.913,41.385,9.812,57.11l47.299,47.299c6.53,6.531,17.119,6.531,23.649,0l47.298-47.298
			C513.634,453.274,513.634,442.686,507.103,436.156z M99.495,99.492c-6.521,6.522-17.13,6.522-23.65,0.001L40.373,64.02
			l23.649-23.649l35.474,35.473C106.016,82.364,106.016,92.973,99.495,99.492z M459.524,36.034c9.864,0,18.275,9.188,16.094,19.843
			c-5.151,25.153-12.848,53.848-23.044,83.685L372.44,59.426C412.434,45.76,454.2,36.034,459.524,36.034z M337.909,72.195
			l39.124,39.124l-51.275,51.275c-32.447-21.462-76.679-17.919-105.231,10.634l-11.825,11.825l-23.313-23.313
			C227.5,123.995,283.062,94.047,337.909,72.195z M232.352,208.702l11.825-11.825c19.606-19.605,51.339-19.609,70.948,0.001
			c19.606,19.605,19.609,51.339,0,70.946l-11.825,11.825L232.352,208.702z M279.65,303.297l-11.825,11.825
			c-19.605,19.607-51.339,19.609-70.946,0c-19.606-19.606-19.609-51.339-0.001-70.948l11.825-11.825L279.65,303.297z
			 M161.741,185.388l23.313,23.313l-11.825,11.825c-28.839,28.839-32.006,73.068-10.644,105.241l-51.265,51.265l-39.124-39.124
			C94.05,283.062,123.996,227.5,161.741,185.388z M55.878,475.617c-11.603,2.373-21.868-7.899-19.495-19.494
			c5.151-25.153,12.848-53.849,23.043-83.685l80.135,80.135C109.727,462.769,81.031,470.467,55.878,475.617z M174.092,439.805
			l-39.124-39.124l51.265-51.265c32.149,21.347,76.378,18.219,105.241-10.644l11.825-11.825l23.314,23.314
			C284.502,388.005,228.939,417.952,174.092,439.805z M350.261,326.612l-23.314-23.313l11.825-11.825
			c28.552-28.552,32.096-72.785,10.635-105.231l51.275-51.275l39.124,39.124C417.953,228.938,388.006,284.5,350.261,326.612z
			 M447.98,471.628l-35.474-35.474c-6.535-6.535-6.536-17.111,0-23.649c6.536-6.535,17.113-6.536,23.649,0l35.474,35.474
			L447.98,471.628z"/>
	</g>
</g>
<g>
</g>
<g>
</g>
<g>
</g>
<g>
</g>
<g>
</g>
<g>
</g>
<g>
</g>
<g>
</g>
<g>
</g>
<g>
</g>
<g>
</g>
<g>
</g>
<g>
</g>
<g>
</g>
<g>
</g>
</svg>
