<?xml version="1.0" encoding="iso-8859-1"?>
<!-- Generator: Adobe Illustrator 19.0.0, SVG Export Plug-In . SVG Version: 6.00 Build 0)  -->
<svg version="1.1" id="Layer_1" xmlns="http://www.w3.org/2000/svg" xmlns:xlink="http://www.w3.org/1999/xlink" x="0px" y="0px"
	 viewBox="0 0 512 512" style="enable-background:new 0 0 512 512;" xml:space="preserve">
<g>
	<g>
		<path d="M472.075,456.311l-78.982-221.748c-0.031-0.087-0.062-0.173-0.095-0.259c-7.871-20.993-5.63-78.529,3.931-100.922
			c13.135-30.76,12.415-75.34-2.212-104.593C385.437,10.224,371.748,0,356.174,0h-33.391c-4.875,0-9.37,2.174-12.405,5.521
			C310.125,5.799,284.777,33.391,256,33.391S201.875,5.799,201.656,5.559C198.45,1.973,193.752,0,189.217,0h-33.391
			c-15.574,0-29.263,10.224-38.545,28.789c-14.615,29.231-15.359,73.803-2.213,104.593c9.562,22.394,11.804,79.93,3.932,100.922
			c-0.032,0.087-0.063,0.173-0.095,0.259L39.925,456.311c-3.063,8.599,1.348,18.064,9.903,21.249
			C53.605,478.966,143.636,512,256,512s202.395-33.034,206.172-34.44C470.727,474.375,475.138,464.91,472.075,456.311z
			 M339.478,50.085V33.391h16.696c0.578,0,4.411,1.795,8.678,10.33c9.997,19.994,10.852,54.339,1.369,76.547
			c-9.435,22.099-14.126,67.611-9.951,101.429c-19.812,6.39-50.185,10.681-83.575,11.766V131.883
			C310.753,124.128,339.478,90.399,339.478,50.085z M256,66.783c19.221,0,36.541-7.182,50.054-15.382
			c-0.701,27.011-22.876,48.774-50.054,48.774S206.648,78.412,205.946,51.4C219.459,59.6,236.779,66.783,256,66.783z
			 M147.148,43.721c4.267-8.535,8.101-10.33,8.678-10.33h16.696v16.696c0,40.313,28.725,74.042,66.783,81.799v101.581
			c-33.39-1.086-63.762-5.377-83.575-11.766c4.175-33.82-0.515-79.331-9.951-101.43C136.291,98.051,137.154,63.708,147.148,43.721z
			 M372.87,466.792v-38.27c0-9.22-7.475-16.696-16.696-16.696c-9.22,0-16.696,7.475-16.696,16.696v43.942
			c-20.557,2.944-43.084,5.148-66.783,5.877v-49.819c0-9.22-7.475-16.696-16.696-16.696s-16.696,7.475-16.696,16.696v49.818
			c-23.678-0.732-46.209-2.943-66.783-5.895v-43.923c0-9.22-7.475-16.696-16.696-16.696s-16.696,7.475-16.696,16.696v38.243
			c-26.937-5.29-48.511-11.245-62.009-15.369l70.288-197.337c26.866,8.297,65.699,13.072,108.591,13.072
			c42.893,0,81.725-4.775,108.591-13.072l70.292,197.349C421.394,455.539,399.829,461.5,372.87,466.792z"/>
	</g>
</g>
<g>
</g>
<g>
</g>
<g>
</g>
<g>
</g>
<g>
</g>
<g>
</g>
<g>
</g>
<g>
</g>
<g>
</g>
<g>
</g>
<g>
</g>
<g>
</g>
<g>
</g>
<g>
</g>
<g>
</g>
</svg>
