<?xml version="1.0" encoding="iso-8859-1"?>
<!-- Generator: Adobe Illustrator 19.0.0, SVG Export Plug-In . SVG Version: 6.00 Build 0)  -->
<svg version="1.1" id="Layer_1" xmlns="http://www.w3.org/2000/svg" xmlns:xlink="http://www.w3.org/1999/xlink" x="0px" y="0px"
	 viewBox="0 0 512 512" style="enable-background:new 0 0 512 512;" xml:space="preserve">
<g>
	<g>
		<path d="M120.722,431.925c-9.235-18.658-28.404-30.776-49.659-30.776c-21.253,0-40.423,12.119-49.66,30.775
			C8.361,439.483,0,453.625,0,469.086C0,492.749,19.253,512,42.916,512H99.21c23.663,0,42.914-19.251,42.914-42.914
			C142.125,453.625,133.766,439.483,120.722,431.925z M99.21,480.653H42.916c-6.379,0-11.569-5.189-11.569-11.567
			c0-4.933,2.955-9.196,7.529-10.86c4.437-1.614,7.909-5.142,9.453-9.603c3.338-9.647,12.475-16.128,22.735-16.128
			c10.261,0,19.396,6.48,22.733,16.126c1.543,4.463,5.017,7.991,9.453,9.605c4.572,1.663,7.528,5.927,7.528,10.86
			C110.778,475.464,105.588,480.653,99.21,480.653z"/>
	</g>
</g>
<g>
	<g>
		<path d="M492.553,337.474c-8.591-16.915-26.1-27.874-45.493-27.874c-19.39,0-36.898,10.957-45.492,27.872
			c-11.87,7.092-19.452,20.093-19.452,34.289c0,22.003,17.902,39.903,39.906,39.903h50.076c22.002,0,39.901-17.901,39.901-39.903
			C512,357.566,504.421,344.565,492.553,337.474z M472.099,380.318h-50.076c-4.72,0-8.559-3.839-8.559-8.557
			c0-3.652,2.181-6.805,5.557-8.033c4.436-1.613,7.908-5.141,9.452-9.603c2.729-7.883,10.198-13.18,18.587-13.18
			c8.389,0,15.858,5.295,18.586,13.177c1.544,4.462,5.017,7.989,9.452,9.604c3.375,1.228,5.556,4.381,5.556,8.034
			C480.654,376.48,476.816,380.318,472.099,380.318z"/>
	</g>
</g>
<g>
	<g>
		<path d="M120.722,30.776C111.487,12.118,92.318,0,71.062,0c-21.251,0-40.42,12.118-49.658,30.774C8.361,38.333,0,52.475,0,67.938
			c0,23.663,19.252,42.914,42.916,42.914H99.21c23.662,0,42.912-19.251,42.912-42.914C142.122,52.476,133.764,38.334,120.722,30.776
			z M99.211,79.505H42.916c-6.379,0-11.569-5.189-11.569-11.567c0-4.935,2.954-9.197,7.525-10.86
			c4.438-1.613,7.911-5.141,9.455-9.603c3.339-9.648,12.475-16.129,22.734-16.129c10.262,0,19.397,6.48,22.735,16.126
			c1.544,4.463,5.018,7.991,9.455,9.606c4.571,1.662,7.524,5.925,7.524,10.86C110.776,74.316,105.588,79.505,99.211,79.505z"/>
	</g>
</g>
<g>
	<g>
		<path d="M499.829,239.388c-7.331-9.165-17.752-17.176-37.097-30.237v-36.418c0-8.656-7.018-15.673-15.673-15.673
			c-8.656,0-15.673,7.017-15.673,15.673v18.6l-27.808-14.974v-38.784c0-8.656-7.018-15.673-15.673-15.673
			s-15.673,7.018-15.673,15.673v21.906l-60.184-32.406c-2.054-12.859-4.542-24.88-7.437-35.803
			C293.365,48.83,277.01,27.31,256.001,27.31c-21.009,0-37.364,21.52-48.609,63.961c-2.894,10.922-5.382,22.944-7.436,35.801
			l-60.184,32.407v-21.905c0-8.656-7.018-15.673-15.673-15.673c-8.656,0-15.673,7.018-15.673,15.673v38.783l-27.808,14.973v-18.599
			c0-8.656-7.018-15.673-15.673-15.673s-15.673,7.018-15.673,15.673v36.417c-19.347,13.062-29.768,21.073-37.099,30.238
			C2.092,251.985,0.028,264.946,0.028,280.531c0,4.662,2.076,9.083,5.663,12.061c2.836,2.354,6.383,3.612,10.01,3.612
			c0.961,0,1.928-0.088,2.889-0.269l175.684-32.942c2.049,33.214,6.539,63.867,13.045,88.551
			c-33.089,19.967-49.213,30.101-58.594,37.579c-13.109,10.449-15.508,18.183-15.508,29.65c0,4.633,2.05,9.029,5.6,12.007
			c3.549,2.979,8.236,4.233,12.798,3.428l104.358-18.414c0.019,0,0.039,0,0.06,0l104.358,18.414c0.907,0.16,1.817,0.238,2.723,0.238
			c0.038,0,0.075,0,0.113-0.001c8.614-0.049,15.581-7.048,15.581-15.672c0-0.307-0.008-0.612-0.026-0.914
			c-0.133-10.969-2.745-18.566-15.504-28.735c-9.381-7.478-25.506-17.612-58.593-37.578c6.507-24.687,10.995-55.34,13.046-88.552
			l175.682,32.943c0.961,0.18,1.928,0.268,2.889,0.268c3.626,0,7.173-1.259,10.01-3.612c3.588-2.978,5.663-7.399,5.663-12.061
			C511.973,264.947,509.909,251.985,499.829,239.388z M193.009,221.554c0,3.268,0.025,6.525,0.071,9.771L35.234,260.921
			c4.539-6.804,14.417-14.323,35.894-28.693c1.217-0.525,2.349-1.207,3.384-2.007l56.972-30.678
			c0.051-0.027,0.101-0.054,0.153-0.083l63.72-34.31C193.814,183.17,193.009,202.145,193.009,221.554z M314.644,394.306
			l-54.813-9.673c-0.899-0.158-1.813-0.237-2.727-0.237c-0.368,0-0.736,0.013-1.102,0.039c-1.279-0.091-2.567-0.024-3.832,0.199
			l-54.812,9.672c11.106-6.877,23.855-14.546,36.439-22.115c6.219-3.741,9.056-11.262,6.859-18.178
			c-10.358-32.591-16.298-80.871-16.298-132.457c0-43.061,4.168-84.222,11.736-115.899c7.677-32.132,16.443-44.074,19.908-46.651
			c3.465,2.578,12.232,14.52,19.908,46.651c7.568,31.677,11.736,72.836,11.736,115.899c0,51.58-5.941,99.859-16.298,132.458
			c-2.197,6.916,0.639,14.436,6.859,18.177C290.79,379.76,303.538,387.428,314.644,394.306z M318.923,231.323
			c0.046-3.244,0.071-6.501,0.071-9.77c0-19.409-0.805-38.383-2.348-56.402l63.735,34.321c0.039,0.021,0.078,0.042,0.117,0.063
			l56.997,30.691c1.031,0.797,2.158,1.477,3.372,2c21.481,14.371,31.36,21.892,35.899,28.697L318.923,231.323z"/>
	</g>
</g>
<g>
</g>
<g>
</g>
<g>
</g>
<g>
</g>
<g>
</g>
<g>
</g>
<g>
</g>
<g>
</g>
<g>
</g>
<g>
</g>
<g>
</g>
<g>
</g>
<g>
</g>
<g>
</g>
<g>
</g>
</svg>
