<?xml version="1.0" encoding="iso-8859-1"?>
<!-- Generator: Adobe Illustrator 19.0.0, SVG Export Plug-In . SVG Version: 6.00 Build 0)  -->
<svg version="1.1" id="Layer_1" xmlns="http://www.w3.org/2000/svg" xmlns:xlink="http://www.w3.org/1999/xlink" x="0px" y="0px"
	 viewBox="0 0 512 512" style="enable-background:new 0 0 512 512;" xml:space="preserve">
<g>
	<g>
		<path d="M462.069,52.556l-3.423-3.423c-65.511-65.509-172.106-65.512-237.618,0L201.83,68.331
			c-2.008-10.867-7.345-21.819-17.733-32.205c-30.385-30.384-79.823-30.384-110.205,0c-1.155,1.154-2.143,2.411-2.968,3.741
			c-48.472,50.995-38.257,130.67-15.11,171.616c11.725,20.739,24.341,27.055,34.093,28.151c-0.568,9.026-0.419,18.086,0.459,27.091
			l-78.685,78.685c-14.51,14.51-14.51,38.121,0,52.632l103.073,103.073C122.01,508.374,131.539,512,141.071,512
			c9.529,0,19.062-3.628,26.316-10.884l80.031-80.029c4.496,0.36,9.005,0.55,13.514,0.55c43.026,0,86.054-16.379,118.809-49.134
			l82.33-82.33C527.579,224.661,527.579,118.066,462.069,52.556z M78.519,144.701c-1.697-18.472-0.867-53.137,23.757-77.762
			c1.016-1.016,1.904-2.11,2.664-3.265c14.352-12.545,36.246-11.977,49.917,1.693c8.263,8.263,12.396,16.867-9.811,52.184
			l-53.884,72.353C86.114,180.423,80.357,164.69,78.519,144.701z M141.071,468.953l-97.226-97.226l12.015-12.015l97.226,97.226
			L141.071,468.953z M182.326,427.698L85.1,330.472l16.805-16.805c8.189,20.177,20.453,39.075,36.792,55.414l3.423,3.423
			c16.957,16.957,36.671,29.514,57.708,37.692L182.326,427.698z M432.829,260.934l-82.33,82.33
			c-49.391,49.388-129.749,49.388-179.14,0l-3.423-3.423c-49.389-49.389-49.389-129.751,0-179.14l82.33-82.33
			c24.694-24.694,57.131-37.042,89.569-37.042c32.436,0,64.874,12.348,89.568,37.042l3.423,3.423
			C482.217,131.184,482.217,211.545,432.829,260.934z"/>
	</g>
</g>
<g>
	<g>
		<path d="M407.931,92.489c-8.073-8.073-21.165-8.073-29.24,0c-8.075,8.073-8.075,21.165,0,29.24
			c22.957,22.957,41.319,59.329-1.581,102.23c-8.075,8.073-8.075,21.165,0,29.24c4.037,4.037,9.329,6.057,14.619,6.057
			s10.583-2.019,14.619-6.057C456.402,203.145,457.009,141.565,407.931,92.489z"/>
	</g>
</g>
<g>
</g>
<g>
</g>
<g>
</g>
<g>
</g>
<g>
</g>
<g>
</g>
<g>
</g>
<g>
</g>
<g>
</g>
<g>
</g>
<g>
</g>
<g>
</g>
<g>
</g>
<g>
</g>
<g>
</g>
</svg>
