<?xml version="1.0" encoding="iso-8859-1"?>
<!-- Generator: Adobe Illustrator 19.0.0, SVG Export Plug-In . SVG Version: 6.00 Build 0)  -->
<svg version="1.1" id="Layer_1" xmlns="http://www.w3.org/2000/svg" xmlns:xlink="http://www.w3.org/1999/xlink" x="0px" y="0px"
	 viewBox="0 0 512 512" style="enable-background:new 0 0 512 512;" xml:space="preserve">
<g>
	<g>
		<path d="M454.426,144.721c6.748-18.974-3.286-56.627-37.539-71.868c-12.202-27.43-40.645-42.807-69.529-38.864
			c-18.15-32.16-59.055-43.8-91.357-24.88c-32.138-18.823-73.106-7.459-91.357,24.881c-28.81-3.932-57.294,11.368-69.529,38.864
			c-34.414,15.311-44.226,53.066-37.54,71.867c-31.122,25.206-21.52,74.687,16.376,86.689l31.907,265.884
			c1.007,8.391,8.126,14.707,16.578,14.707c6.303,0,262.112,0,267.132,0c8.451,0,15.569-6.316,16.578-14.707l31.907-265.884
			C475.985,219.396,485.514,169.898,454.426,144.721z M112.892,101.804c5.365-1.614,9.563-5.812,11.177-11.177
			c5.629-18.707,25.618-28.83,44.162-21.383c9.268,3.722,19.727-1.486,22.337-11.133c6.333-23.406,35.153-33.222,54.26-16.012
			c6.35,5.721,15.998,5.721,22.348,0c19.1-17.203,47.924-7.404,54.26,16.012c2.61,9.645,13.06,14.855,22.337,11.133
			c18.562-7.454,38.539,2.691,44.165,21.384c1.614,5.364,5.811,9.562,11.176,11.176c14.263,4.292,23.846,17.055,23.846,31.76H89.045
			C89.045,118.859,98.628,106.096,112.892,101.804z M137.249,478.609l-29.386-244.871h47.025l17.447,244.871H137.249z
			 M239.306,478.609h-33.495l-17.447-244.871h50.942V478.609z M305.15,478.609h-32.452V233.738h49.899L305.15,478.609z
			 M374.756,478.609h-36.131l17.447-244.871h48.068L374.756,478.609z M422.959,200.347H89.045c-9.206,0-16.696-7.49-16.696-16.696
			s7.49-16.696,16.696-16.696h333.914c9.206,0,16.696,7.49,16.696,16.696S432.165,200.347,422.959,200.347z"/>
	</g>
</g>
<g>
</g>
<g>
</g>
<g>
</g>
<g>
</g>
<g>
</g>
<g>
</g>
<g>
</g>
<g>
</g>
<g>
</g>
<g>
</g>
<g>
</g>
<g>
</g>
<g>
</g>
<g>
</g>
<g>
</g>
</svg>
